<svg width="22" height="19" viewBox="0 0 22 19" fill="none" xmlns="http://www.w3.org/2000/svg">
<g id="twitter">
<g id="Group">
<g id="Group_2">
<path id="Vector" d="M21.3331 0.577953L21.333 0.577909C21.1978 0.487179 21.0182 0.488714 20.8846 0.581531L20.8846 0.581569C20.189 1.06492 19.4357 1.45332 18.6391 1.73986L18.3592 1.84052L18.1372 1.64267C17.3936 0.98007 16.4521 0.582796 15.4315 0.512837C14.227 0.430303 13.0662 0.814025 12.1576 1.59272L12.1575 1.59274C11.1682 2.4405 10.6065 3.66391 10.6115 4.95105L10.6136 5.49904L10.0677 5.45104C6.19628 5.11062 3.76814 2.69162 2.11402 0.654732L21.3331 0.577953ZM21.3331 0.577953C21.4669 0.667647 21.5261 0.825706 21.4895 0.973531L21.4895 0.973614C21.1947 2.1658 20.6041 3.26272 19.771 4.17016L19.6203 4.33424L19.6415 4.55599C19.6544 4.69036 19.6612 4.82503 19.6616 4.95905M21.3331 0.577953L1.75025 0.515135M1.75025 0.515135L1.75008 0.515161C1.6101 0.535583 1.49598 0.627012 1.44632 0.749349L1.44628 0.749429C1.41609 0.823764 0.496809 3.12502 0.731328 5.89755C0.925468 8.19268 1.95386 11.1864 5.63057 13.193L6.5154 13.6759L5.59553 14.0882C4.13252 14.7439 2.51566 15.0633 0.90471 15.0001M1.75025 0.515135C1.89038 0.494639 2.0286 0.54961 2.11398 0.654688L1.75025 0.515135ZM0.90471 15.0001L0.924301 14.5006L0.904874 15.0001C0.904819 15.0001 0.904765 15.0001 0.90471 15.0001ZM0.90471 15.0001C0.719037 14.993 0.560857 15.1119 0.514196 15.2758L0.514182 15.2758C0.467944 15.4382 0.539347 15.6155 0.697449 15.702M0.697449 15.702C0.697435 15.702 0.697422 15.702 0.697408 15.702L0.458552 16.1385L0.697449 15.702ZM0.697449 15.702C2.83492 16.8719 5.18859 17.4924 7.5015 17.5017H7.50176L7.55508 17.5018C9.79586 17.5018 11.9549 16.9331 13.8032 15.8618M13.8032 15.8618L14.0539 16.2944L13.8032 15.8618ZM13.8032 15.8618C15.5692 14.8381 17.0314 13.357 18.0317 11.579C19.109 9.66397 19.6616 7.44141 19.6616 4.95905M19.6616 4.95905C19.6616 4.95943 19.6616 4.95982 19.6616 4.96021L20.1615 4.95863H19.6616C19.6616 4.95877 19.6616 4.95891 19.6616 4.95905ZM18.9239 3.94505L18.9239 3.94509C18.8327 4.03368 18.7942 4.15885 18.8174 4.27885C18.8174 4.27887 18.8174 4.27889 18.8174 4.27892L18.3266 4.37409L18.9239 3.94505ZM18.9239 3.94505C19.1736 3.70249 19.4025 3.44214 19.6092 3.16658L20.6346 1.79993L19.0342 2.39817C18.8059 2.48353 18.5741 2.56118 18.3392 2.63086L18.3389 2.63093C18.1895 2.67535 18.0289 2.62826 17.9295 2.5156L17.9294 2.51558M18.9239 3.94505L17.9294 2.51558M17.9294 2.51558C17.2754 1.77496 16.367 1.32989 15.3765 1.26201L17.9294 2.51558ZM18.5786 3.58961L18.5759 3.58688L18.5786 3.58961ZM15.3765 1.262C14.3858 1.19405 13.4244 1.51093 12.6733 2.15455L15.3765 1.262Z" fill="white" stroke="white"/>
</g>
</g>
</g>
</svg>
