<svg width="310" height="187" viewBox="0 0 310 187" fill="none" xmlns="http://www.w3.org/2000/svg">
<g filter="url(#filter0_d_25_814)">
<rect x="20" y="20" width="270" height="147" rx="4.3916" fill="white"/>
</g>
<path fill-rule="evenodd" clip-rule="evenodd" d="M151.554 107.003C146.214 103.656 142.28 92.1076 142.28 78.3861C142.28 77.8826 142.284 77.3863 142.294 76.8901L142.301 76.8973C127.449 74.5619 116.718 68.1636 116.443 60.5977L116.399 60.6849C112.765 65.2035 110.691 70.428 110.691 75.9949C110.691 92.3757 128.663 105.798 151.458 106.985L151.554 107.003L151.554 107.003ZM103.824 77.1901C103.824 58.861 126.621 44 154.745 44C182.868 44 205.666 58.861 205.666 77.1901C205.666 95.5191 182.868 110.381 154.745 110.381C126.621 110.381 103.824 95.5187 103.824 77.1901ZM154.745 48.79C160.174 48.79 164.792 57.0299 166.503 68.527L166.509 68.5097C177.071 66.8647 184.466 63.07 184.466 58.6543C184.466 52.7276 171.158 47.9288 154.745 47.9288C138.331 47.9288 125.024 52.728 125.024 58.6543C125.024 63.07 132.418 66.8647 142.981 68.5097L142.987 68.527C144.698 57.0303 149.317 48.79 154.745 48.79H154.745ZM158.032 106.984C180.827 105.798 198.801 92.3753 198.801 75.9945C198.801 70.428 196.724 65.2035 193.091 60.6845L193.046 60.5973C192.771 68.1632 182.043 74.5615 167.189 76.8969L167.196 76.8897C167.206 77.3859 167.211 77.8822 167.211 78.3857C167.211 92.1072 163.274 103.656 157.938 107.003L158.032 106.984L158.032 106.984ZM154.745 69.3814C157.177 69.3814 159.542 69.2777 161.804 69.0782L161.8 69.0818C160.674 61.7117 157.94 56.5102 154.744 56.5102C151.549 56.5102 148.815 61.7117 147.687 69.0818L147.683 69.0782C149.946 69.2777 152.311 69.3814 154.743 69.3814H154.745ZM154.745 96.6743C158.832 96.6743 162.167 88.1639 162.344 77.4897L162.366 77.4973C159.903 77.7255 157.354 77.8446 154.745 77.8446C152.134 77.8446 149.588 77.7255 147.125 77.4973L147.148 77.4897C147.323 88.1635 150.656 96.6743 154.745 96.6743Z" fill="#2D3037"/>
<path fill-rule="evenodd" clip-rule="evenodd" d="M154.894 131.687C154.894 124.887 160.363 119.374 167.107 119.374C173.853 119.374 179.321 124.887 179.321 131.687C179.321 138.488 173.853 144 167.107 144C160.363 144 154.894 138.488 154.894 131.687ZM167.107 139.485C170.874 139.485 173.927 135.993 173.927 131.687C173.927 127.381 170.874 123.889 167.107 123.889C163.342 123.889 160.289 127.381 160.289 131.687C160.289 135.993 163.342 139.485 167.107 139.485Z" fill="#2D3037"/>
<path fill-rule="evenodd" clip-rule="evenodd" d="M200.358 124.504H193.197H193.18V143.441H188.035V124.504H188.052H180.855V120.223H200.358V124.504Z" fill="#2D3037"/>
<path fill-rule="evenodd" clip-rule="evenodd" d="M206.582 138.217L206.577 138.222L204.603 143.441H198.594L208.095 120.223H211.298H214.498L224 143.441H217.99L216.016 138.222L216.011 138.217H211.298H206.582ZM211.298 134.298H214.535L214.533 134.299L211.32 125.801H211.275L208.059 134.299L208.058 134.298H211.297H211.298Z" fill="#2D3037"/>
<path fill-rule="evenodd" clip-rule="evenodd" d="M105.503 124.504H98.3429H98.325V143.441H93.1792V124.504H93.1967H86V120.223H105.503V124.504Z" fill="#2D3037"/>
<path fill-rule="evenodd" clip-rule="evenodd" d="M106.818 131.687C106.818 124.887 112.287 119.374 119.033 119.374C125.778 119.374 131.246 124.887 131.246 131.687C131.246 138.488 125.778 144 119.033 144C112.287 144 106.818 138.488 106.818 131.687ZM119.033 139.485C122.798 139.485 125.851 135.993 125.851 131.687C125.851 127.381 122.798 123.889 119.033 123.889C115.267 123.889 112.213 127.381 112.213 131.687C112.213 135.993 115.267 139.485 119.033 139.485Z" fill="#2D3037"/>
<path fill-rule="evenodd" clip-rule="evenodd" d="M143.07 129.982L137.493 120.223H131.482L140.46 134.624V134.733V143.441H143.07H145.679V134.733V134.624L154.656 120.223H148.648L143.07 129.982Z" fill="#2D3037"/>
<g clip-path="url(#clip0_25_814)">
<path d="M268.095 128.79C267.784 128.79 267.488 128.855 267.219 128.971C266.892 128.145 266.09 127.56 265.155 127.56C264.807 127.56 264.478 127.64 264.185 127.784C263.814 127.069 263.07 126.579 262.214 126.579C261.963 126.579 261.721 126.622 261.496 126.7V124.237C261.496 123.004 260.499 122 259.274 122C258.049 122 257.052 123.004 257.052 124.237V133.1L255.452 131.269C255.441 131.256 255.43 131.244 255.418 131.232C254.998 130.812 254.438 130.579 253.843 130.576C253.839 130.576 253.836 130.576 253.832 130.576C253.238 130.576 252.682 130.805 252.266 131.222C251.531 131.957 251.49 133.048 252.154 134.215C253.014 135.726 253.948 137.15 254.773 138.406C255.375 139.325 255.945 140.192 256.361 140.909C256.721 141.532 257.679 143.55 257.689 143.571C257.813 143.833 258.078 144 258.368 144H267.869C268.196 144 268.485 143.789 268.585 143.479C268.762 142.928 270.317 138.042 270.317 136.155V131.027C270.316 129.793 269.32 128.79 268.095 128.79ZM267.376 131.027C267.376 130.622 267.699 130.293 268.095 130.293C268.491 130.293 268.814 130.622 268.814 131.027V136.155C268.814 137.409 267.85 140.78 267.318 142.497H258.842C258.53 141.849 257.946 140.648 257.661 140.155C257.225 139.404 256.646 138.522 256.033 137.588C256.032 137.586 256.031 137.584 256.029 137.582C255.217 136.344 254.297 134.941 253.46 133.472C253.242 133.088 253.042 132.571 253.329 132.285C253.462 132.151 253.642 132.081 253.836 132.079C254.025 132.08 254.204 132.151 254.34 132.28L257.238 135.595C257.444 135.831 257.775 135.914 258.068 135.804C258.361 135.694 258.555 135.414 258.555 135.101V124.237C258.555 123.832 258.878 123.503 259.274 123.503C259.671 123.503 259.993 123.832 259.993 124.237V131.253C259.993 131.668 260.33 132.004 260.744 132.004C261.159 132.004 261.496 131.668 261.496 131.253V128.816C261.496 128.411 261.818 128.082 262.214 128.082C262.611 128.082 262.933 128.411 262.933 128.816V132.233C262.933 132.648 263.27 132.984 263.685 132.984C264.099 132.984 264.436 132.648 264.436 132.233V129.797C264.436 129.392 264.758 129.062 265.155 129.062C265.551 129.062 265.874 129.392 265.874 129.797V133.214C265.874 133.629 266.21 133.965 266.625 133.965C267.04 133.965 267.376 133.629 267.376 133.214L267.376 131.027Z" fill="white"/>
<path d="M267.376 131.027C267.376 130.622 267.699 130.293 268.095 130.293C268.491 130.293 268.814 130.622 268.814 131.027V136.155C268.814 137.409 267.85 140.78 267.318 142.497H258.842C258.53 141.849 257.946 140.648 257.661 140.155C257.225 139.404 256.646 138.522 256.033 137.588L256.029 137.582C255.217 136.344 254.297 134.941 253.46 133.472C253.242 133.088 253.042 132.571 253.329 132.285C253.462 132.151 253.642 132.081 253.836 132.079C254.025 132.08 254.204 132.151 254.34 132.28L257.238 135.595C257.444 135.831 257.775 135.914 258.068 135.804C258.361 135.694 258.555 135.414 258.555 135.101V124.237C258.555 123.832 258.878 123.503 259.274 123.503C259.671 123.503 259.993 123.832 259.993 124.237V131.253C259.993 131.668 260.33 132.004 260.744 132.004C261.159 132.004 261.496 131.668 261.496 131.253V128.816C261.496 128.411 261.818 128.082 262.214 128.082C262.611 128.082 262.933 128.411 262.933 128.816V132.233C262.933 132.648 263.27 132.984 263.685 132.984C264.099 132.984 264.436 132.648 264.436 132.233V129.797C264.436 129.392 264.758 129.062 265.155 129.062C265.551 129.062 265.874 129.392 265.874 129.797V133.214C265.874 133.629 266.21 133.965 266.625 133.965C267.04 133.965 267.376 133.629 267.376 133.214L267.376 131.027Z" fill="white"/>
<path d="M268.095 128.79C267.784 128.79 267.488 128.855 267.219 128.971C266.892 128.145 266.09 127.56 265.154 127.56C264.807 127.56 264.478 127.64 264.185 127.784C263.813 127.069 263.07 126.579 262.214 126.579C261.963 126.579 261.721 126.622 261.496 126.7V124.237C261.496 123.004 260.499 122 259.274 122C258.049 122 257.052 123.004 257.052 124.237V133.1L255.452 131.269C255.441 131.256 255.43 131.244 255.418 131.232C254.998 130.812 254.438 130.579 253.843 130.576C253.839 130.576 253.836 130.576 253.832 130.576C253.238 130.576 252.682 130.805 252.265 131.222C251.531 131.957 251.49 133.048 252.154 134.215C253.014 135.726 253.948 137.15 254.773 138.406C255.375 139.325 255.945 140.192 256.361 140.909C256.721 141.532 257.679 143.55 257.689 143.571C257.813 143.833 258.078 144 258.368 144H267.869C268.196 144 268.485 143.789 268.585 143.479C268.762 142.928 270.316 138.042 270.316 136.155V131.027C270.316 129.793 269.32 128.79 268.095 128.79ZM267.376 131.027C267.376 130.622 267.699 130.293 268.095 130.293C268.491 130.293 268.813 130.622 268.813 131.027V136.155C268.813 137.409 267.85 140.78 267.318 142.497H258.842C258.53 141.849 257.946 140.648 257.661 140.155C257.224 139.402 256.643 138.518 256.029 137.582C255.217 136.344 254.296 134.941 253.46 133.472C253.242 133.088 253.042 132.571 253.328 132.285C253.462 132.151 253.642 132.081 253.836 132.079C254.025 132.08 254.203 132.151 254.34 132.28L257.238 135.595C257.444 135.831 257.775 135.914 258.068 135.804C258.361 135.694 258.555 135.414 258.555 135.101V124.237C258.555 123.832 258.878 123.503 259.274 123.503C259.67 123.503 259.993 123.832 259.993 124.237V131.253C259.993 131.668 260.329 132.004 260.744 132.004C261.159 132.004 261.496 131.668 261.496 131.253V128.816C261.496 128.411 261.818 128.082 262.214 128.082C262.611 128.082 262.933 128.411 262.933 128.816V132.233C262.933 132.648 263.27 132.984 263.684 132.984C264.099 132.984 264.436 132.648 264.436 132.233V129.797C264.436 129.392 264.758 129.062 265.155 129.062C265.551 129.062 265.873 129.392 265.873 129.797V133.214C265.873 133.629 266.21 133.965 266.625 133.965C267.04 133.965 267.376 133.629 267.376 133.214V131.027H267.376Z" fill="#2D3037"/>
</g>
<defs>
<filter id="filter0_d_25_814" x="0" y="0" width="310" height="187" filterUnits="userSpaceOnUse" color-interpolation-filters="sRGB">
<feFlood flood-opacity="0" result="BackgroundImageFix"/>
<feColorMatrix in="SourceAlpha" type="matrix" values="0 0 0 0 0 0 0 0 0 0 0 0 0 0 0 0 0 0 127 0" result="hardAlpha"/>
<feOffset/>
<feGaussianBlur stdDeviation="10"/>
<feColorMatrix type="matrix" values="0 0 0 0 0.293125 0 0 0 0 0.332039 0 0 0 0 0.35 0 0 0 0.1 0"/>
<feBlend mode="normal" in2="BackgroundImageFix" result="effect1_dropShadow_25_814"/>
<feBlend mode="normal" in="SourceGraphic" in2="effect1_dropShadow_25_814" result="shape"/>
</filter>
<clipPath id="clip0_25_814">
<rect width="22" height="22" fill="white" transform="translate(250 122)"/>
</clipPath>
</defs>
</svg>
