<svg width="310" height="187" viewBox="0 0 310 187" fill="none" xmlns="http://www.w3.org/2000/svg">
<g filter="url(#filter0_d_25_1243)">
<rect x="20" y="20" width="270" height="147" rx="4.3916" fill="white"/>
</g>
<path d="M271 78.7539H259.897L246.886 94.4985L233.875 78.7539H222.715L237.171 96.3197L222.715 113.885H233.875L246.886 98.0821L259.897 113.885H271L256.543 96.3197L271 78.7539Z" fill="#2D3037"/>
<path d="M107.524 106.306V100.079H129.787L129.614 92.5004H107.524V86.273H132.91L136.842 78.6357H97.8672V113.885H138.461L133.546 106.306H107.524Z" fill="#2D3037"/>
<path d="M214.908 78.7539H205.598V113.885H214.908V78.7539Z" fill="#2D3037"/>
<path d="M65.6009 88.5059H65.2539L76.2988 97.8469V118.703L85.7245 114.003V88.5059H65.6009Z" fill="#2D3037"/>
<path d="M65.6002 106.424C64.1545 106.424 61.4366 106.248 58.6032 105.367C53.977 103.898 49.0618 100.49 49.0618 92.4419C49.0618 84.4521 53.9192 81.0447 58.4875 79.576C61.321 78.636 64.0967 78.5185 65.5423 78.4598C65.7736 78.4598 66.0049 78.4598 66.1784 78.4598C68.318 78.4598 72.4237 78.636 78.3798 80.9272L85.319 73.4074C77.9172 70.4112 69.5902 70 65.5423 70C59.1814 70 39 71.7037 39 92.4419C39 113.18 59.1814 114.884 65.5423 114.884C65.9471 114.884 66.3519 114.884 66.8145 114.884L71.7876 105.954C69.301 106.424 67.3928 106.483 66.1784 106.483C66.0628 106.424 65.8893 106.424 65.6002 106.424Z" fill="#2D3037"/>
<path d="M170.784 103.428L155.171 78.7539H145.688V113.885H154.766V91.7961L170.784 117.175L186.744 91.7961V113.885H195.823V78.7539H186.339L170.784 103.428Z" fill="#2D3037"/>
<defs>
<filter id="filter0_d_25_1243" x="0" y="0" width="310" height="187" filterUnits="userSpaceOnUse" color-interpolation-filters="sRGB">
<feFlood flood-opacity="0" result="BackgroundImageFix"/>
<feColorMatrix in="SourceAlpha" type="matrix" values="0 0 0 0 0 0 0 0 0 0 0 0 0 0 0 0 0 0 127 0" result="hardAlpha"/>
<feOffset/>
<feGaussianBlur stdDeviation="10"/>
<feColorMatrix type="matrix" values="0 0 0 0 0.293125 0 0 0 0 0.332039 0 0 0 0 0.35 0 0 0 0.1 0"/>
<feBlend mode="normal" in2="BackgroundImageFix" result="effect1_dropShadow_25_1243"/>
<feBlend mode="normal" in="SourceGraphic" in2="effect1_dropShadow_25_1243" result="shape"/>
</filter>
</defs>
</svg>
