<svg width="310" height="187" viewBox="0 0 310 187" fill="none" xmlns="http://www.w3.org/2000/svg">
<g filter="url(#filter0_d_25_1219)">
<rect x="20" y="20" width="270" height="147" rx="4.3916" fill="white"/>
</g>
<path d="M135.34 90.7822C135.34 89.5529 134.883 88.6999 133.969 88.2255C133.055 87.75 131.836 87.5122 130.313 87.5122H126.366V94.3039H130.355C130.908 94.3039 131.483 94.2555 132.078 94.1573C132.674 94.0604 133.214 93.8849 133.699 93.6333C134.183 93.3817 134.578 93.025 134.883 92.5633C135.188 92.1039 135.34 91.5094 135.34 90.7822ZM134.385 79.0017C134.385 77.9952 134.004 77.2622 133.242 76.8005C132.48 76.34 131.352 76.1091 129.856 76.1091H126.366V82.2302H130.188C131.518 82.2302 132.549 81.959 133.284 81.4142C134.017 80.867 134.385 80.066 134.385 79.0017ZM142.444 91.4529C142.444 93.0746 142.126 94.4367 141.489 95.5402C140.851 96.6448 140.007 97.5324 138.954 98.2031C137.902 98.8737 136.704 99.3562 135.361 99.6494C134.017 99.9426 132.64 100.089 131.227 100.089H119.512V70.4082H131.227C132.362 70.4082 133.526 70.5259 134.717 70.7637C135.908 71.0015 136.988 71.4078 137.957 71.9803C138.927 72.5528 139.716 73.3285 140.326 74.3073C140.934 75.285 141.24 76.5281 141.24 78.0379C141.24 79.6874 140.796 81.0494 139.911 82.1252C139.023 83.201 137.861 83.9778 136.421 84.4522V84.5353C137.251 84.6761 138.034 84.9347 138.768 85.311C139.501 85.6884 140.138 86.1709 140.678 86.7585C141.219 87.3448 141.648 88.0293 141.966 88.8119C142.284 89.5945 142.444 90.4752 142.444 91.4529Z" fill="#2D3037"/>
<path d="M163.559 79.5062C163.559 78.8067 163.412 78.2411 163.119 77.8071C162.828 77.3742 162.452 77.0395 161.993 76.8006C161.533 76.5639 161.019 76.4035 160.448 76.3192C159.878 76.235 159.327 76.1934 158.799 76.1934H155V83.111H158.381C158.966 83.111 159.564 83.0625 160.177 82.9644C160.789 82.8663 161.345 82.6908 161.847 82.4415C162.348 82.1887 162.758 81.8251 163.078 81.3496C163.398 80.874 163.559 80.2599 163.559 79.5062ZM163.849 100.089L157.463 88.3098H155.041V100.089H148.103V70.4082H159.32C160.733 70.4082 162.112 70.5548 163.454 70.8491C164.797 71.1412 166.003 71.6375 167.069 72.337C168.135 73.0353 168.986 73.9576 169.625 75.1026C170.261 76.25 170.58 77.6755 170.58 79.3792C170.58 81.3911 170.04 83.0833 168.959 84.4522C167.879 85.8212 166.384 86.8 164.473 87.3876L172.158 100.089H163.849Z" fill="#2D3037"/>
<path d="M192.378 78.3311L188.639 88.5187H196.034L192.378 78.3311ZM200.272 100.089L197.986 94.2624H186.604L184.443 100.089H176.715L189.054 70.4082H195.951L208.165 100.089H200.272Z" fill="#2D3037"/>
<path d="M225.138 100.089H218.033L206.898 70.4082H214.876L221.69 91.4529H221.856L228.628 70.4082H236.479L225.138 100.089Z" fill="#2D3037"/>
<path d="M263.397 85.1226C263.397 83.8379 263.188 82.6352 262.773 81.5167C262.358 80.4017 261.784 79.4436 261.049 78.6449C260.316 77.8484 259.428 77.2193 258.391 76.7599C257.352 76.2971 256.209 76.0674 254.963 76.0674C253.717 76.0674 252.581 76.2971 251.556 76.7599C250.531 77.2193 249.646 77.8484 248.897 78.6449C248.15 79.4436 247.574 80.4017 247.173 81.5167C246.771 82.6352 246.571 83.8379 246.571 85.1226C246.571 86.465 246.779 87.7001 247.194 88.8325C247.609 89.9648 248.184 90.9355 248.918 91.747C249.652 92.5573 250.531 93.1922 251.556 93.6539C252.581 94.1144 253.717 94.3464 254.963 94.3464C256.209 94.3464 257.344 94.1144 258.369 93.6539C259.394 93.1922 260.281 92.5573 261.029 91.747C261.777 90.9355 262.358 89.9648 262.773 88.8325C263.188 87.7001 263.397 86.465 263.397 85.1226ZM270.999 85.1226C270.999 87.4704 270.598 89.6151 269.795 91.5577C268.991 93.5015 267.877 95.1625 266.451 96.5465C265.024 97.9304 263.327 98.9993 261.362 99.7542C259.394 100.508 257.262 100.885 254.963 100.885C252.663 100.885 250.538 100.508 248.585 99.7542C246.633 98.9993 244.943 97.9304 243.516 96.5465C242.09 95.1625 240.975 93.5015 240.172 91.5577C239.369 89.6151 238.969 87.4704 238.969 85.1226C238.969 82.7471 239.369 80.6025 240.172 78.6876C240.975 76.7726 242.09 75.1451 243.516 73.8038C244.943 72.4626 246.633 71.4283 248.585 70.7023C250.538 69.9751 252.663 69.6104 254.963 69.6104C257.262 69.6104 259.394 69.9751 261.362 70.7023C263.327 71.4283 265.024 72.4626 266.451 73.8038C267.877 75.1451 268.991 76.7726 269.795 78.6876C270.598 80.6025 270.999 82.7471 270.999 85.1226Z" fill="#2D3037"/>
<path d="M178.164 113.41H182.258L180.219 108.235L178.164 113.41ZM176.527 117.478H174.828L179.57 106.442H180.961L185.656 117.478H183.926L182.814 114.765H177.624L176.527 117.478Z" fill="#2D3037"/>
<path d="M194.733 106.442H193.203V117.478H194.733V106.442Z" fill="#2D3037"/>
<path d="M203.807 111.274H205.568C205.928 111.274 206.263 111.243 206.572 111.181C206.881 111.118 207.151 111.017 207.383 110.877C207.614 110.737 207.797 110.555 207.932 110.331C208.065 110.108 208.132 109.83 208.132 109.497C208.132 109.165 208.065 108.887 207.932 108.663C207.797 108.44 207.619 108.261 207.398 108.126C207.177 107.991 206.917 107.895 206.618 107.838C206.319 107.78 206.006 107.752 205.677 107.752H203.807V111.274ZM203.807 117.478H202.277V106.442H205.785C206.31 106.442 206.809 106.497 207.282 106.606C207.756 106.715 208.171 106.89 208.526 107.128C208.881 107.367 209.162 107.681 209.368 108.071C209.574 108.461 209.677 108.936 209.677 109.497C209.677 110.308 209.43 110.963 208.935 111.461C208.441 111.96 207.802 112.277 207.02 112.412L210.078 117.478H208.225L205.445 112.568H203.807V117.478Z" fill="#2D3037"/>
<path d="M219.8 115.233H219.83L222.394 106.442H224.078L226.627 115.233H226.657L229.067 106.442H230.689L227.477 117.478H225.886L223.228 108.609H223.198L220.54 117.478H218.95L215.736 106.442H217.39L219.8 115.233Z" fill="#2D3037"/>
<path d="M237.801 113.41H241.894L239.856 108.235L237.801 113.41ZM236.164 117.478H234.465L239.207 106.442H240.597L245.292 117.478H243.563L242.451 114.765H237.261L236.164 117.478Z" fill="#2D3037"/>
<path d="M254.7 117.478H253.156V112.708L249.063 106.442H250.947L253.974 111.43L257.018 106.442H258.793L254.7 112.708V117.478Z" fill="#2D3037"/>
<path d="M269.706 108.484C269.489 108.182 269.196 107.936 268.826 107.743C268.455 107.551 268.037 107.455 267.574 107.455C267.327 107.455 267.077 107.488 266.825 107.556C266.573 107.624 266.344 107.733 266.138 107.883C265.932 108.034 265.765 108.221 265.636 108.445C265.507 108.668 265.443 108.936 265.443 109.248C265.443 109.549 265.501 109.801 265.62 110.004C265.738 110.205 265.899 110.378 266.099 110.517C266.3 110.658 266.536 110.777 266.81 110.876C267.082 110.975 267.374 111.077 267.683 111.18C268.053 111.294 268.429 111.424 268.81 111.57C269.191 111.715 269.536 111.907 269.845 112.146C270.154 112.386 270.406 112.684 270.601 113.043C270.797 113.401 270.896 113.856 270.896 114.406C270.896 114.978 270.789 115.475 270.578 115.895C270.367 116.316 270.086 116.664 269.737 116.94C269.386 117.214 268.983 117.42 268.524 117.555C268.065 117.69 267.595 117.758 267.111 117.758C266.421 117.758 265.754 117.622 265.11 117.352C264.467 117.082 263.934 116.682 263.512 116.152L264.701 115.139C264.958 115.524 265.304 115.835 265.736 116.074C266.169 116.314 266.637 116.432 267.142 116.432C267.399 116.432 267.657 116.396 267.914 116.323C268.171 116.251 268.405 116.137 268.617 115.981C268.828 115.825 269 115.63 269.135 115.396C269.269 115.163 269.335 114.879 269.335 114.546C269.335 114.215 269.266 113.936 269.126 113.713C268.987 113.49 268.8 113.3 268.563 113.144C268.326 112.988 268.05 112.855 267.737 112.746C267.422 112.637 267.091 112.526 266.74 112.412C266.39 112.308 266.045 112.18 265.705 112.029C265.365 111.879 265.061 111.686 264.794 111.453C264.526 111.219 264.309 110.931 264.145 110.588C263.98 110.245 263.898 109.82 263.898 109.309C263.898 108.759 264.009 108.286 264.23 107.891C264.451 107.497 264.74 107.169 265.095 106.909C265.451 106.65 265.852 106.46 266.3 106.34C266.748 106.221 267.198 106.161 267.651 106.161C268.29 106.161 268.887 106.275 269.444 106.504C269.999 106.733 270.447 107.039 270.787 107.424L269.706 108.484Z" fill="#2D3037"/>
<ellipse cx="71.542" cy="93.7633" rx="32.542" ry="32.7633" fill="#C5C4C4"/>
<path d="M101.733 94.2388L99.3485 93.1929L73.7528 93.3929C73.7528 93.3929 64.321 89.3277 58.8711 86.8961C53.4171 84.4617 44.8913 81.2742 43.1669 82.6392C41.4403 84.0049 51.2913 89.6904 53.3217 90.7924C55.346 91.8902 73.9902 101.338 73.9902 101.338L73.9723 101.811L65.8904 99.5824L63.6439 108.028L65.1503 108.727L101.733 94.2388Z" fill="#2D3037"/>
<defs>
<filter id="filter0_d_25_1219" x="0" y="0" width="310" height="187" filterUnits="userSpaceOnUse" color-interpolation-filters="sRGB">
<feFlood flood-opacity="0" result="BackgroundImageFix"/>
<feColorMatrix in="SourceAlpha" type="matrix" values="0 0 0 0 0 0 0 0 0 0 0 0 0 0 0 0 0 0 127 0" result="hardAlpha"/>
<feOffset/>
<feGaussianBlur stdDeviation="10"/>
<feColorMatrix type="matrix" values="0 0 0 0 0.293125 0 0 0 0 0.332039 0 0 0 0 0.35 0 0 0 0.1 0"/>
<feBlend mode="normal" in2="BackgroundImageFix" result="effect1_dropShadow_25_1219"/>
<feBlend mode="normal" in="SourceGraphic" in2="effect1_dropShadow_25_1219" result="shape"/>
</filter>
</defs>
</svg>
