<svg width="310" height="187" viewBox="0 0 310 187" fill="none" xmlns="http://www.w3.org/2000/svg">
<g filter="url(#filter0_d_25_1256)">
<rect x="20" y="20" width="270" height="147" rx="4.3916" fill="white"/>
</g>
<path d="M103.039 84.6515C103.039 68.2315 115.369 57.0264 131.317 57.0264C143.014 57.0264 149.794 63.4394 153.517 70.0637L143.787 74.8911C141.574 70.5571 136.797 67.1392 131.282 67.1392C121.657 67.1392 114.631 74.574 114.631 84.6868C114.631 94.7643 121.622 102.234 131.282 102.234C136.761 102.234 141.539 98.8869 143.787 94.4824L153.517 99.2041C149.688 105.864 143.014 112.347 131.317 112.347C115.369 112.277 103.039 101.072 103.039 84.6515Z" fill="#2D3037"/>
<path d="M162.683 103.785L169.779 95.1167C174.1 99.0631 180.809 102.34 189.275 102.34C196.441 102.34 199.954 99.4507 199.954 96.4204C199.954 86.9419 164.651 93.4606 164.651 73.3407C164.651 64.426 173.468 57.0616 187.905 57.0616C197.635 57.0616 205.75 59.6338 211.827 64.5317L204.555 72.8827C199.603 68.8657 192.963 67.0334 186.711 67.0334C181.09 67.0334 177.964 69.1829 177.964 72.3893C177.964 80.8813 213.197 75.2082 213.197 95.1519C213.197 104.948 205.188 112.312 188.643 112.312C176.84 112.277 168.409 108.824 162.683 103.785Z" fill="#2D3037"/>
<path d="M222 110.797V58.2246H242.479C258.743 58.2246 270.054 68.6898 270.054 84.546C270.054 100.402 258.779 110.797 242.479 110.797H222ZM258.743 84.546C258.743 75.2437 253.123 68.0907 242.479 68.0907H233.065V100.966H242.479C252.737 100.931 258.743 93.4608 258.743 84.546Z" fill="#2D3037"/>
<path d="M94.08 84.6162C94.08 84.9686 94.08 85.321 94.0448 85.6733C94.0448 85.7438 94.0448 85.8143 94.0448 85.8847C94.0097 86.8009 93.9043 87.717 93.7989 88.5979C93.7989 88.6332 93.7989 88.6332 93.7989 88.6684C93.7989 88.7741 93.7638 88.8446 93.7638 88.9503C93.7638 88.9855 93.7638 88.9855 93.7638 89.0208C93.553 90.3597 93.2369 91.6987 92.8154 92.9672C92.7802 93.0377 92.7802 93.1082 92.7451 93.1786C92.3938 94.3062 91.9372 95.3985 91.4454 96.4203C91.4103 96.4908 91.3751 96.5613 91.34 96.667C90.7428 97.9003 90.0403 99.0983 89.2675 100.261C88.9865 100.684 88.6703 101.142 88.319 101.53C87.2301 102.939 86.0358 104.208 84.7009 105.37C84.6306 105.441 84.5253 105.511 84.455 105.582C83.7173 106.216 82.9094 106.85 82.1015 107.414C82.0312 107.449 81.9961 107.485 81.9258 107.52C81.7151 107.661 81.5043 107.802 81.2935 107.943C81.2233 107.978 81.153 108.013 81.0828 108.048C80.5207 108.401 79.9587 108.718 79.3967 109C79.2913 109.07 79.1859 109.105 79.0805 109.176C75.3219 111.114 71.0714 112.206 66.54 112.206C66.1887 112.206 65.8726 112.206 65.5213 112.171C65.4159 112.171 65.3456 112.171 65.2403 112.171C64.2918 112.136 63.3434 112.03 62.3949 111.889C62.3247 111.889 62.2544 111.854 62.1842 111.854C59.9009 111.501 57.723 110.832 55.6504 109.951C55.5451 109.916 55.4397 109.845 55.2992 109.81C53.6131 109.07 52.0323 108.154 50.557 107.097C50.4516 107.026 50.3462 106.956 50.2759 106.885C47.2901 104.701 44.7609 101.917 42.864 98.7107C42.7938 98.605 42.7586 98.5345 42.6884 98.4288C41.5643 96.5261 40.6861 94.4471 40.089 92.2977C40.0538 92.2272 40.0538 92.1568 40.0187 92.0863C39.7026 90.994 39.4567 89.8664 39.281 88.7036C39.281 88.6684 39.281 88.6332 39.281 88.6332C39.281 88.5627 39.2459 88.457 39.2459 88.3865C39.2459 88.3513 39.2459 88.316 39.2459 88.316C39.0703 87.118 39 85.8847 39 84.6515C39 84.4753 39 84.2991 39 84.1229C39 84.0525 39 83.982 39 83.8763C39.0351 83.1716 39.0703 82.4668 39.1405 81.7621V81.7269C39.1405 81.6212 39.1756 81.5155 39.1756 81.4097V81.3745C39.4215 79.4365 39.8431 77.5338 40.4402 75.7367C40.4754 75.6663 40.4754 75.5958 40.5105 75.5253C41.0725 73.9397 41.7751 72.3893 42.583 70.9446C42.6181 70.8741 42.6533 70.8037 42.6884 70.7684C44.1989 68.1962 46.0958 65.8706 48.3088 63.9326C48.4142 63.8621 48.4844 63.7564 48.5898 63.6859C50.8028 61.7832 53.2969 60.2328 56.0368 59.1052C56.1422 59.07 56.2476 58.9995 56.353 58.9643C57.8284 58.3653 59.374 57.9072 60.9547 57.5901C61.025 57.5901 61.0952 57.5549 61.1655 57.5549C62.5706 57.273 64.0459 57.0968 65.5213 57.0616C65.6618 57.0616 65.7672 57.0616 65.9077 57.0616C66.0833 57.0616 66.2941 57.0616 66.4697 57.0616C69.9473 57.0616 73.2493 57.6958 76.3054 58.8938C76.4108 58.9291 76.5162 58.9643 76.6216 58.9995C79.7479 60.2328 82.5933 62.0651 85.0522 64.285C85.1224 64.3554 85.1927 64.3907 85.2629 64.4611C86.6329 65.7649 87.8975 67.1743 88.9865 68.76C89.0216 68.8304 89.0918 68.9009 89.127 68.9714C90.6375 71.156 91.8318 73.5873 92.6749 76.1948C92.71 76.2653 92.71 76.3357 92.7451 76.4062C93.2369 77.9214 93.553 79.4718 93.7638 81.0926C93.7638 81.1278 93.7638 81.1279 93.7638 81.1631C93.7638 81.2688 93.7989 81.3745 93.7989 81.445C93.7989 81.4802 93.7989 81.4802 93.7989 81.5155C94.0097 82.4668 94.08 83.5591 94.08 84.6162Z" fill="#C5C4C4"/>
<path d="M39 84.0886L40.7564 85.0048L41.0374 85.1457H41.0725L41.0023 85.2514L39.2459 88.3169C39.2459 88.3874 39.281 88.4931 39.281 88.5636C39.281 88.5988 39.281 88.6341 39.281 88.6341L41.213 85.2866L41.2833 85.1457C41.2833 85.1457 41.3184 85.1105 41.3184 85.0752V85.04V85.0048L41.2833 84.9695L41.2482 84.9343L41.1779 84.899L41.0023 84.7933H40.9671L40.7915 84.6876L39.0351 83.7715C39 83.9124 39 83.9829 39 84.0886Z" fill="white"/>
<path d="M39 83.8414L40.7564 84.7928L39 83.8414ZM41.3535 85.1452V85.11L41.3184 85.0395L41.2833 84.969L41.0374 84.5814L39.2108 81.4102C39.2108 81.5159 39.1756 81.6216 39.1756 81.7273V81.7625L40.8618 84.6871L40.9671 84.8985L40.7915 84.7928L39.0351 83.8414C39.0351 83.9119 39.0351 83.9824 39.0351 84.0881L40.7915 85.0042L41.0725 85.1452H41.1077L41.213 85.1804H41.2482C41.2833 85.1804 41.3184 85.1804 41.3184 85.1452C41.3535 85.2157 41.3535 85.1804 41.3535 85.1452Z" fill="white"/>
<path d="M45.0449 89.2678L44.9395 89.0211L44.8341 88.845L44.799 88.7745V88.8097V88.845V88.8802V88.9859L44.7639 89.1621L44.8692 89.3735L53.4052 106.463C53.4755 106.428 53.5457 106.393 53.616 106.393L45.0449 89.2678ZM53.897 106.992L53.8619 106.921L53.8268 106.886L53.7916 106.851L53.5809 106.393L45.0449 89.2678L44.9395 89.0211L44.8341 88.845L44.799 88.7745C44.799 88.7745 44.799 88.7745 44.7639 88.7393C44.7287 88.7393 44.6936 88.7393 44.6936 88.7393C44.6936 88.7393 44.6936 88.7393 44.6585 88.7393C44.6585 88.7393 44.6585 88.7393 44.6585 88.7745C44.6585 88.7745 44.6585 88.7745 44.6585 88.8097V88.845L44.6233 89.0564L44.5882 89.303L42.8318 98.4644C42.9021 98.5701 42.9372 98.6406 43.0075 98.7463L44.799 89.3383L44.8341 89.1269L44.9395 89.3383L53.4755 106.428L53.7214 106.921H50.4194C50.5248 106.992 50.6302 107.062 50.7004 107.133H53.897C53.9321 107.133 53.9673 107.097 53.9673 107.097C53.897 107.062 53.897 107.027 53.897 106.992Z" fill="white"/>
<path d="M55.652 82.2913C55.652 82.256 55.6169 82.256 55.6169 82.256C55.6169 82.256 55.5817 82.256 55.5466 82.256H55.5115H55.4764H55.4061L55.1602 82.2913L41.6712 84.934H41.601L41.2848 85.0044H41.2497H41.1794H41.1443H41.1092V85.0397C41.1092 85.0749 41.1092 85.0749 41.1092 85.1102C41.1092 85.1102 41.1092 85.1101 41.1092 85.1454L41.2146 85.2511L41.2497 85.2863L43.0061 87.1186L44.0248 88.1757L44.5517 88.7042L44.5868 88.7395H44.6219L44.6571 88.7747H44.6922C44.7273 88.7747 44.7273 88.7747 44.7625 88.7747L44.7976 88.7395L44.8327 88.7042L44.903 88.669L45.4299 88.3519L55.3007 82.4674L55.4764 82.3617L55.5466 82.3265L55.6169 82.2913L55.652 82.256V82.2208C55.652 82.2208 55.652 82.2208 55.652 82.1855V82.2913ZM45.3596 88.2462L44.6922 88.6338L44.1302 88.0348L41.4605 85.2511L41.4253 85.2159L41.5307 85.1806L54.9846 82.5379L45.3596 88.2462Z" fill="white"/>
<path d="M45.3234 88.986C45.2883 89.0565 45.2531 89.0917 45.1829 89.1622L59.5852 95.998V95.9628C59.5852 95.8923 59.6203 95.857 59.6554 95.8218L45.3234 88.986ZM60.1121 95.998L60.0418 95.9628L59.9716 95.9275L59.9013 95.8923L59.6554 95.7866L45.3234 88.986L44.9019 88.7746L44.7262 88.7041C44.6911 88.7041 44.656 88.7041 44.656 88.7041C44.656 88.7041 44.656 88.7041 44.6208 88.7041C44.6208 88.7041 44.6208 88.7041 44.6208 88.7393C44.6208 88.7393 44.6208 88.7393 44.6208 88.7746V88.8098L44.656 88.9155L44.7262 89.0917L44.8316 89.3031L53.3676 106.393L53.6135 106.886L53.6838 107.027C53.6838 107.062 53.7189 107.062 53.754 107.062C53.754 107.062 53.754 107.062 53.7891 107.062C53.8243 107.062 53.8594 107.027 53.8594 107.027L54.0702 106.675L54.1404 106.569L59.9365 96.4913L60.1472 96.1389L60.1823 96.1037C60.1823 96.1037 60.1823 96.0685 60.2175 96.0685C60.2175 96.0332 60.2175 96.0332 60.2175 95.998C60.1472 96.0332 60.1472 95.998 60.1121 95.998ZM53.5784 106.357L45.0424 89.2679L44.937 89.0212L45.1829 89.1269L59.5852 95.9628L59.9365 96.1389L59.7608 96.4561L53.9999 106.463L53.7891 106.815L53.5784 106.357Z" fill="white"/>
<path d="M44.7962 88.7398C44.7611 88.7398 44.7962 88.7398 44.7962 88.7398C44.7962 88.7045 44.7962 88.7045 44.7611 88.7045L44.7259 88.6693L44.1639 88.0703L41.4942 85.2866L41.4591 85.2514L41.424 85.2161V85.1809L41.3537 85.1104C41.3186 85.0752 41.3186 85.0752 41.2835 85.0752H41.2483V85.1104L41.2132 85.1457L41.1429 85.2866L39.4217 88.2817C39.4217 88.3169 39.4217 88.3522 39.4217 88.3522C39.4217 88.4226 39.4568 88.5283 39.4568 88.5988L41.3537 85.3218L41.3888 85.2866L41.424 85.3218L43.1803 87.1541L44.199 88.2112L44.7259 88.7398L44.3395 89.0569L40.2648 92.0872C40.2648 92.1577 40.2999 92.2281 40.335 92.2986L44.5152 89.1978L44.7611 89.0216L44.8665 88.9512L44.9016 88.9159L44.9367 88.8807C44.9718 88.8455 44.9718 88.8455 44.9718 88.8102V88.775C44.7962 88.775 44.7962 88.775 44.7962 88.7398Z" fill="white"/>
<path d="M60.1472 95.9979L60.1121 95.8569L60.0067 95.5046L55.7914 82.7138L55.686 82.432L55.6509 82.3615V82.3262C55.6509 82.3262 55.6509 82.291 55.6158 82.291H55.5806H55.5455L55.5104 82.3262L55.2645 82.4672L55.1942 82.5024L55.0537 82.5729L45.4639 88.2812L44.7965 88.6688L44.7262 88.704C44.7262 88.704 44.7262 88.704 44.6911 88.704C44.6911 88.704 44.6911 88.704 44.656 88.7392C44.656 88.7392 44.656 88.7392 44.656 88.7745V88.8097L44.6911 88.8449L44.7614 88.8802L44.8316 88.9154L44.9721 88.9859L45.218 89.0916L59.6203 95.9274L59.9716 96.1036L60.0067 96.1388L60.077 96.1741H60.1121C60.1472 96.1741 60.1472 96.1741 60.1823 96.1388C60.1823 96.1388 60.1823 96.1036 60.2175 96.1036C60.2175 96.1036 60.2175 96.1036 60.2175 96.0683C60.2175 96.0331 60.2175 96.0331 60.2175 95.9979H60.1472ZM59.6554 95.7512L45.3234 88.9506L44.9019 88.7392L45.4288 88.4221L55.2996 82.5377L55.4753 82.432L55.5455 82.6786L59.7608 95.5398L59.8662 95.8569L59.6554 95.7512Z" fill="white"/>
<path d="M44.1293 89.0917L40.0545 92.122C40.0545 92.1925 40.0896 92.263 40.1248 92.3334L44.3049 89.2326C44.1996 89.1974 44.1644 89.1269 44.1293 89.0917ZM44.7616 88.7393L44.7265 88.7041C44.6913 88.7041 44.6562 88.7041 44.6562 88.7041C44.6562 88.7041 44.6562 88.7041 44.6211 88.7041L44.5508 88.7746L44.1644 89.0917L40.0896 92.122C40.0896 92.1925 40.1248 92.263 40.1599 92.3334L44.3401 89.2326L44.586 89.0565L44.5508 89.3031L42.7945 98.4645C42.8647 98.5702 42.8998 98.6407 42.9701 98.7464L44.7616 89.3384L44.7967 89.1269L44.8318 88.9508V88.845V88.8098V88.7746C44.7967 88.7746 44.7967 88.7393 44.7616 88.7393Z" fill="white"/>
<path d="M67.3474 99.1342L67.2772 98.817L67.1718 98.7466L67.1015 98.9228L67.1718 99.1694L69.4199 107.238C69.4902 107.203 69.5605 107.168 69.6307 107.168L67.3474 99.1342ZM69.701 107.591L69.6658 107.52L69.5956 107.238L67.3474 99.1694L67.2772 98.8523L67.242 98.6761L67.2069 98.6056V98.5704C67.2069 98.5704 67.2069 98.5704 67.1718 98.5352H67.1367C67.1015 98.5352 67.1015 98.5352 67.1015 98.5352C67.1015 98.5352 67.1015 98.5352 67.1015 98.5704V98.6056L67.0664 98.6761L66.9961 98.8875L66.8908 99.1694L62.2891 111.96C62.3593 111.96 62.4296 111.995 62.4998 111.995L67.0664 99.2751L67.1718 99.0285L67.242 99.2751L69.4902 107.344L69.5605 107.661L69.1741 108.084L65.31 112.277C65.4154 112.277 65.4857 112.277 65.591 112.277L69.2794 108.26L69.701 107.802L69.7361 107.767C69.701 107.661 69.701 107.626 69.701 107.591Z" fill="white"/>
<path d="M72.8294 96.0685C72.8294 96.0333 72.8294 96.0333 72.8294 96.0685C72.8294 96.0333 72.7942 96.0333 72.7942 96.0333C72.7591 95.998 72.7591 95.998 72.724 95.998H60.1132C60.1132 95.998 60.1132 95.998 60.0781 95.998C60.0781 95.998 60.0781 95.998 60.0429 95.998C60.0429 95.998 60.0078 95.998 60.0078 96.0333V96.0685C60.0078 96.1037 60.0429 96.1742 60.0781 96.1742H60.1132H60.1483L60.605 96.3504L66.5064 98.4646L66.8225 98.5703L66.9279 98.6055H66.9631H66.9982H67.0333H67.0684H67.1036H67.1387L67.1738 98.5703L67.2792 98.535L67.6305 98.3941L72.2322 96.3504L72.6537 96.139L72.724 96.1038C72.8294 96.1742 72.8294 96.1037 72.8294 96.0685ZM67.5602 98.2532L67.1036 98.4646L66.6469 98.2884L60.7806 96.1742H72.2322L72.1971 96.2095L69.3166 97.5132L67.5602 98.2532Z" fill="white"/>
<path d="M84.033 109.916C84.033 109.916 84.033 109.952 84.033 109.916C84.033 109.916 84.033 109.952 84.033 109.916ZM67.6284 98.8171L67.3123 98.6057L67.1718 98.5352C67.1718 98.5352 67.1718 98.5352 67.1367 98.5352H67.1015H67.0664C67.0664 98.5352 67.0664 98.5352 67.0664 98.5704V98.6057V98.6409V98.6761L67.1015 98.7466L67.1367 98.9228L67.2069 99.1694L69.4551 107.239L69.5253 107.556V107.626C69.5253 107.661 69.5605 107.697 69.5956 107.697H69.6658L70.263 107.802L79.1151 109.212C79.2205 109.141 79.3259 109.106 79.4313 109.036L70.2279 107.591L69.7361 107.52L69.6658 107.239L67.4177 99.1694L67.3474 98.8523L67.5933 99.0285L81.1525 108.084C81.2228 108.049 81.293 108.014 81.3633 107.978L67.6284 98.8171Z" fill="white"/>
<path d="M60.7442 96.2095C60.7091 96.28 60.674 96.3504 60.6388 96.3857L66.5403 98.4998C66.5403 98.4294 66.5754 98.3589 66.6105 98.2884L60.7442 96.2095ZM67.1725 98.5351L67.1374 98.4998C67.1374 98.4998 67.1374 98.4998 67.1023 98.4998H67.0672L66.6105 98.3237L60.7442 96.2095H60.7091L60.5334 96.139L60.2173 96.0333L60.1119 95.9981H60.0768C60.0768 95.9981 60.0768 95.9981 60.0417 95.9981C60.0417 95.9981 60.0417 95.9981 60.0065 95.9981C60.0065 95.9981 59.9714 95.9981 59.9714 96.0333V96.0685L59.9012 96.1743L59.7255 96.4914L53.9646 106.498L53.7538 106.851L53.6836 106.992C53.6836 107.027 53.6485 107.062 53.6836 107.097C53.6836 107.097 53.6836 107.133 53.7187 107.133L53.7538 107.168H53.789C53.789 107.168 53.8241 107.168 53.8592 107.168L53.9295 107.097L54.1754 106.957L66.6105 99.0636L66.8564 98.9227L66.9969 98.817L67.0672 98.7817L67.1023 98.7465L67.1374 98.7113C67.1374 98.676 67.1374 98.676 67.1374 98.6408C67.1725 98.5703 67.1725 98.5703 67.1725 98.5351ZM66.5403 98.817L54.1754 106.71H54.1402L54.1754 106.675L59.9714 96.5619L60.1822 96.2095L60.6388 96.3857L66.5403 98.4998L66.8564 98.6056L66.5403 98.817Z" fill="white"/>
<path d="M84.033 109.916C84.033 109.916 84.033 109.951 84.033 109.916V109.916ZM72.8976 96.1389L72.8273 96.0684C72.7922 96.0332 72.7922 96.0332 72.7571 96.0332H72.7219H72.6868L72.6517 96.0684L72.4058 96.1741L72.195 96.2446L69.3146 97.5131L67.5933 98.2883L67.1367 98.4997H67.1015C67.1015 98.4997 67.1015 98.4997 67.0664 98.4997C67.0664 98.4997 67.0664 98.4997 67.0664 98.535V98.5702V98.6054L67.1015 98.6407L67.1367 98.6759L67.2069 98.7111L67.3123 98.7816L67.5582 98.9578L81.1174 108.014C81.1877 107.978 81.2579 107.943 81.3282 107.908L67.6987 98.7816L67.3826 98.5702L67.7338 98.4293L72.3355 96.3856L72.7571 96.1741L73.0732 96.5265L81.9956 107.485C82.0659 107.45 82.101 107.414 82.1712 107.379L73.2489 96.4208L72.8976 96.1389Z" fill="white"/>
<path d="M67.0672 98.7114L66.997 98.7467L66.8565 98.8524L66.7511 99.1342L62.1494 111.925C62.2196 111.925 62.2899 111.96 62.3601 111.96L66.9267 99.24L67.0321 98.9933L67.1024 98.8171L67.0672 98.7114ZM67.1726 98.5352L67.1375 98.5C67.1375 98.5 67.1375 98.5 67.1024 98.5H67.0672H67.0321L66.8565 98.6057L66.5755 98.7819L54.2106 106.675H54.1754L54.1052 106.71L53.8593 106.851L53.789 106.886L53.7539 106.921C53.7539 106.957 53.7539 106.992 53.7539 107.027L53.789 107.062L53.9647 107.344L55.3698 109.776C55.4752 109.811 55.5805 109.881 55.721 109.917L54.1403 107.203L54.0349 106.992L54.2808 106.851L66.716 98.9581L66.9619 98.8171L66.8565 99.099L62.2548 111.89C62.325 111.89 62.3953 111.925 62.4655 111.925L67.0321 99.2047L67.1024 98.9581L67.1726 98.7819L67.2077 98.7114V98.6762V98.6409V98.6057C67.1726 98.5705 67.1726 98.5705 67.1726 98.5352Z" fill="white"/>
<path d="M91.2012 96.5255L91.166 96.455L87.302 90.1125L87.2318 89.9716L87.0561 89.6897L87.021 89.6192C87.021 89.6192 87.021 89.584 86.9859 89.584H86.9507H86.9156C86.9156 89.584 86.9156 89.584 86.9156 89.6192V89.7249V89.7954L86.8454 90.2182L84.6323 105.546C84.7026 105.476 84.808 105.405 84.8782 105.335L85.0539 104.137L86.8805 90.3239L86.9156 90.0068L87.0913 90.2887L90.9553 96.6312L88.2856 101.564C88.6017 101.141 88.9179 100.719 89.234 100.296L91.166 96.7369L91.2012 96.6665C91.2012 96.596 91.2012 96.5608 91.2012 96.5255ZM84.0352 109.915C84.0352 109.915 84.0352 109.95 84.0352 109.915V109.915Z" fill="white"/>
<path d="M91.6905 85.0743C91.6905 85.0391 91.6553 85.0391 91.6553 85.0391H91.6202H91.5851H91.5499L91.4094 85.0743L76.972 88.5274L76.6207 88.5979L76.41 88.6332H76.3749L76.2695 88.6684H76.2343C76.2343 88.6684 76.2343 88.6684 76.1992 88.7036V88.7389C76.1992 88.7741 76.2343 88.8446 76.3046 88.8446H76.3397H76.3749L76.972 88.8798L86.3862 89.655H86.4916L86.7726 89.6902H86.8429H86.878H86.9131H86.9482H86.9834L87.0888 89.5845L87.2995 89.3731L91.6202 85.2152L91.6905 85.1448L91.7256 85.1095C91.7256 85.18 91.7256 85.1448 91.6905 85.0743ZM86.8429 89.5845L86.4213 89.5493L77.0071 88.7741H76.972H77.0071L91.2689 85.3562L87.1239 89.3379L86.8429 89.5845Z" fill="white"/>
<path d="M87.0545 89.6554L86.9491 89.585H86.914H86.8789L86.8438 89.6202V89.6554V89.6907C86.8438 89.6907 86.8438 89.6907 86.8438 89.7259L86.8789 89.7611L86.914 89.7964L87.0194 89.9726L87.195 90.2544L91.0591 96.597L91.0942 96.6322C91.1293 96.6674 91.1644 96.6674 91.1996 96.6674H91.2698H91.4455C91.4806 96.597 91.5157 96.5265 91.5508 96.4208L91.2698 96.456L87.4058 90.1135L87.3355 89.9726L87.4761 90.043L92.8857 93.1791C92.9208 93.1086 92.9208 93.0381 92.9559 92.9676L87.5463 89.8316L87.0545 89.6554Z" fill="white"/>
<path d="M86.9493 89.6553C86.9493 89.6201 86.9493 89.6201 86.9493 89.6553L86.9141 89.6201H86.879H86.8439L86.4224 89.5848L77.0082 88.8097H76.9731L76.5515 88.7744H76.411H76.3056H76.2705H76.2354C76.2354 88.7744 76.2354 88.7744 76.2003 88.8097L76.1651 88.8449L75.9895 89.162L72.8983 95.5398L72.7577 95.8569L72.6875 95.9978V96.0331V96.0683C72.6875 96.0683 72.6875 96.0683 72.6875 96.1035V96.1388V96.174C72.7226 96.174 72.7226 96.2092 72.7577 96.2092H72.7929L72.9334 96.1388L73.3198 95.9626L86.4224 90.0429L86.7736 89.902L86.879 89.8667L86.9141 89.8315H86.9493C86.9844 89.8315 87.0195 89.7963 87.0195 89.761L86.9493 89.6553C86.9844 89.6553 86.9844 89.6553 86.9493 89.6553ZM86.3521 89.7963L73.2144 95.7512L72.9685 95.8569L73.0739 95.6102L76.1651 89.2677L76.3408 88.9154L76.9379 88.9506L86.3521 89.7258H86.4575L86.3521 89.7963Z" fill="white"/>
<path d="M91.7616 85.1799L91.7265 85.1095C91.7265 85.0742 91.6914 85.0742 91.6914 85.0742C91.6914 85.0742 91.6914 85.0742 91.6563 85.0742H91.6211C91.6211 85.0742 91.586 85.0742 91.586 85.1095L91.5157 85.1799L91.305 85.3913L87.1599 89.373L86.8789 89.6197C86.8789 89.6197 86.8789 89.6197 86.8789 89.6549V89.6902C86.8789 89.6902 86.8789 89.6902 86.8789 89.7254C86.8789 89.7254 86.8789 89.7254 86.8789 89.7606L86.914 89.7959H86.9492H86.9843L87.0897 89.8311L87.3004 89.972L87.4409 90.0425L92.8506 93.1785C92.8857 93.1081 92.8857 93.0376 92.9208 92.9671L87.5112 89.8311L87.1599 89.6197L87.3707 89.4083L91.6914 85.2856L93.8342 89.0207C93.8342 88.9854 93.8342 88.9854 93.8342 88.9502C93.8342 88.8797 93.8693 88.774 93.8693 88.6683L91.867 85.2152L91.7616 85.1799Z" fill="white"/>
<path d="M86.3521 89.7963L73.2144 95.7512C73.2496 95.8217 73.2847 95.8569 73.2847 95.9626L86.3873 90.043C86.3521 89.9372 86.3521 89.8668 86.3521 89.7963ZM86.9493 89.6554C86.9493 89.6201 86.9493 89.6201 86.9493 89.6554L86.9142 89.6201H86.879C86.879 89.6201 86.879 89.6201 86.8439 89.6201L86.4926 89.7963L86.3873 89.8315L73.2496 95.7864L73.0037 95.8922H72.9685L72.8632 95.9626L72.7578 95.9979C72.7578 95.9979 72.7227 95.9979 72.7227 96.0331V96.0683V96.1036V96.1388V96.174L72.7578 96.2093L73.0739 96.5616L81.9963 107.52C82.0666 107.485 82.1017 107.45 82.172 107.414L73.2496 96.4559L72.9685 96.1388L73.3549 95.9626L86.4575 90.043L86.8088 89.902L86.7385 90.3248L84.5255 105.653C84.5957 105.582 84.7011 105.512 84.7714 105.441L84.947 104.243L86.879 90.3248L86.9142 90.0077L86.9493 89.8668V89.7611V89.7258V89.6554C86.9844 89.6554 86.9844 89.6554 86.9493 89.6554Z" fill="white"/>
<path d="M72.8295 95.9624L72.7593 95.8214L72.7242 95.7862L72.5836 95.5043L66.8579 85.5677L66.6822 85.2858L66.5768 85.1096L66.5417 85.0391L66.5066 85.0039H66.4715H66.4363C66.4363 85.0039 66.4012 85.0039 66.4012 85.0391C66.4012 85.0391 66.4012 85.0391 66.4012 85.0744L66.3661 85.1448L66.1553 85.4972L64.5043 88.3513L60.3944 95.4691L60.2188 95.7509L60.1836 95.8214L60.1134 95.9271V95.9624C60.1134 95.9976 60.1134 95.9976 60.1134 96.0328C60.1134 96.0328 60.1134 96.0328 60.1485 96.0681H60.1836H72.7944C72.8295 96.0681 72.8647 96.0328 72.8647 96.0328C72.8647 96.0328 72.8647 96.0328 72.8647 95.9976C72.8295 95.9976 72.8295 95.9976 72.8295 95.9624ZM60.4998 95.5748L66.2256 85.6382L66.4363 85.2858L66.6471 85.6734L72.3729 95.61L72.5485 95.8919H60.3241L60.4998 95.5748Z" fill="white"/>
<path d="M65.242 74.5742C65.1718 74.6094 65.1015 74.6094 65.0312 74.5742L66.2607 84.546C66.331 84.5108 66.4012 84.5108 66.4715 84.5108L65.242 74.5742ZM77.7825 75.2085C77.7825 75.1732 77.7825 75.1732 77.7825 75.1732H77.7474H77.7123L77.4664 75.138H77.2556L65.7689 74.1866L65.242 74.1514H65.2069H65.1718H65.1366H65.1015C65.0664 74.1866 65.0664 74.1866 65.0664 74.2218V74.2571V74.3628V74.4333L65.1015 74.6094L66.331 84.5813L66.3661 84.9336V85.0393V85.0746V85.1098L66.4012 85.145C66.4012 85.145 66.4012 85.145 66.4364 85.145C66.4715 85.145 66.4715 85.1451 66.5066 85.1098L66.5769 85.0746L66.6471 85.0041L66.9633 84.7222L76.0613 76.7588L77.5366 75.4551H77.5718L77.6069 75.4199L77.6772 75.3494L77.7474 75.2789C77.7474 75.2789 77.7474 75.2789 77.7825 75.2437V75.2085C77.7825 75.2437 77.7825 75.2437 77.7825 75.2085C77.7825 75.2437 77.7825 75.2085 77.7825 75.2085ZM66.7876 84.6165L66.5066 84.8632L66.4715 84.546L65.242 74.6094L65.2069 74.3275L65.5933 74.3628L77.2556 75.3142H77.3961L77.3259 75.3846L66.7876 84.6165Z" fill="white"/>
<path d="M76.3747 88.7038C76.3396 88.7038 76.3747 88.7038 76.3747 88.7038C76.3396 88.6685 76.3396 88.6333 76.3044 88.6333L76.2342 88.5981H76.1991L75.918 88.4924L67.0659 85.1802L66.6444 85.0392L66.539 85.004L66.4687 84.9688H66.4336H66.3985C66.3985 84.9688 66.3985 84.9688 66.3634 84.9688C66.3282 84.9688 66.3634 84.9688 66.3634 85.004C66.3634 85.004 66.3634 85.004 66.3634 85.0392V85.0745V85.1097V85.1449V85.1802L66.4336 85.3211L66.6444 85.7087L72.3702 95.6453L72.5458 95.9272L72.5809 95.9977L72.6161 96.0329L72.6512 96.0681C72.6512 96.1034 72.6863 96.1034 72.7566 96.1034C72.7917 96.1034 72.8268 96.0681 72.8268 96.0681L72.8971 95.892L73.0376 95.6101L76.1288 89.2676L76.3044 88.9504L76.3747 88.8447V88.8095C76.3747 88.739 76.3747 88.739 76.3747 88.7038ZM72.5458 95.5044L66.82 85.5678L66.6444 85.2859L66.9605 85.3916L75.8127 88.7038L76.0937 88.8095L75.9532 89.1266L72.8268 95.5044L72.6863 95.7863L72.5458 95.5044Z" fill="white"/>
<path d="M59.13 83.0662L56.0037 82.2558C56.0037 82.291 56.0037 82.3262 56.0037 82.3615C56.0037 82.3967 56.0037 82.432 55.9686 82.4672L65.8745 85.0394V85.0042C65.8745 84.9337 65.9096 84.8985 65.9448 84.828L59.13 83.0662ZM66.5068 85.0042V84.8632L66.4717 84.5461L65.2422 74.6095L65.2071 74.3276V74.2219V74.1867V74.1514C65.2071 74.1514 65.2071 74.1514 65.2071 74.1162H65.172H65.1368H65.1017L65.0666 74.1514L65.0315 74.1867L64.7504 74.4333L64.6802 74.5038L55.9334 81.9386L55.7227 82.1148L55.6524 82.1853L55.6173 82.2205C55.6173 82.2205 55.6173 82.2205 55.6173 82.2558V82.291C55.6173 82.291 55.6173 82.3262 55.6524 82.3262L55.6875 82.3615H55.7227H55.7578H55.7929H55.8632L56.0739 82.432L65.9799 85.0042L66.3312 85.1099L66.4014 85.1451H66.4366H66.4717C66.4717 85.1451 66.4717 85.1451 66.5068 85.1451C66.5419 85.1451 66.5419 85.1451 66.5771 85.1099V85.0747V85.0394L66.5068 85.0042ZM65.9448 84.8632L59.13 83.1014L56.0037 82.291L55.7929 82.2558L55.9334 82.1501L64.7856 74.6095L64.9612 74.4686L64.9963 74.6448L66.2258 84.6166L66.2609 84.9689L65.9448 84.8632Z" fill="white"/>
<path d="M66.6482 85.0391L67.0697 85.18L66.6482 85.0391ZM77.7836 75.2082C77.7836 75.1729 77.7836 75.1729 77.7836 75.1729L77.7485 75.1377C77.7134 75.1377 77.6783 75.1377 77.6431 75.1377H77.608L77.5026 75.2082L77.3972 75.3139L77.327 75.3844L66.7887 84.6162L66.5077 84.8629L66.4023 84.9686L66.3672 85.0038C66.3672 85.0038 66.3672 85.0038 66.3672 85.0391C66.3672 85.0391 66.3672 85.0391 66.3672 85.0743V85.1095V85.1448V85.18L66.4023 85.2152L66.4726 85.2505L66.6833 85.3209L66.9995 85.4267L75.8516 88.7389L76.1326 88.8446H76.1678H76.2029H76.238H76.2731C76.3083 88.8446 76.3083 88.8446 76.3434 88.8446L76.3785 88.8093V88.7741V88.7389V88.7036V88.5627L76.4137 88.2103L77.7485 75.5253V75.4548V75.2786V75.2434L77.7836 75.2082C77.7836 75.2434 77.7836 75.2082 77.7836 75.2082ZM75.8867 88.4922L67.0346 85.18L66.6131 85.0391L66.9292 84.7572L76.0273 76.7938L77.5026 75.4901H77.5377V75.5253L76.238 88.2103L76.2029 88.5979L75.8867 88.4922Z" fill="white"/>
<path d="M66.5066 85.0395C66.5066 85.0043 66.5066 85.0395 66.5066 85.0395C66.4715 85.0043 66.4715 85.0043 66.4715 85.0043H66.4364L66.331 84.969L66.0149 84.8986L59.2001 83.1368L56.0738 82.3263L55.863 82.2911L55.6874 82.2559H55.6522C55.6171 82.2559 55.582 82.2559 55.5468 82.2911L55.5117 82.3263C55.5117 82.3263 55.5117 82.3263 55.5117 82.3616V82.3968V82.432L55.5468 82.5025L55.582 82.573L55.6874 82.8549L59.9027 95.6456L60.008 96.0332L60.0432 96.1741C60.0432 96.1741 60.0432 96.2094 60.0783 96.2094C60.0783 96.2094 60.0783 96.2094 60.1134 96.2446H60.1486H60.1837C60.1837 96.2446 60.2188 96.2446 60.2188 96.2094L60.2539 96.1389L60.2891 96.1037L60.3242 96.0332L60.535 95.6808L66.2607 85.7442L66.4715 85.3919L66.5066 85.3214L66.5418 85.2862V85.2509V85.2157C66.5418 85.0748 66.5418 85.0395 66.5066 85.0395ZM66.05 85.4976L64.399 88.3517L60.2891 95.4694L60.1134 95.7513L60.008 95.4342L55.7927 82.6435L55.7225 82.3968L55.9332 82.4673L65.8392 85.0395L66.1905 85.1452L66.05 85.4976Z" fill="white"/>
<path d="M77.7797 75.2087C77.7797 75.1734 77.7797 75.1734 77.7797 75.1734L77.6743 75.0677L77.6392 75.0325L77.2879 74.7154L61.9372 60.1276L61.7264 59.9162L61.6561 59.8457H61.621C61.5859 59.8457 61.5507 59.8457 61.5507 59.8457L61.5156 59.8809V59.9162C61.5156 59.9162 61.5156 59.9162 61.5156 59.9514C61.5156 59.9514 61.5156 59.9514 61.5156 59.9866L61.5507 60.0924L61.621 60.339L64.8879 73.4469L64.9932 73.8697L65.0635 74.1516V74.1868V74.2221C65.0635 74.2573 65.0635 74.2573 65.0986 74.2573C65.0986 74.2573 65.1338 74.2573 65.1338 74.2925H65.1689H65.2391L65.6255 74.3278L77.2879 75.2791H77.4284H77.604H77.6392H77.6743C77.7094 75.2791 77.7094 75.2791 77.7094 75.2791C77.7094 75.2791 77.7094 75.2792 77.7445 75.2439C77.7445 75.2439 77.7445 75.2439 77.7445 75.2087H77.7797C77.7797 75.2439 77.7797 75.2087 77.7797 75.2087ZM77.1825 75.0677L65.6958 74.1164L65.1689 74.0811L64.9932 73.3764L61.7264 60.3038V60.2685L61.7615 60.3038L77.1825 74.9268L77.3933 75.103L77.1825 75.0677Z" fill="white"/>
<path d="M61.199 57.5197C61.1288 57.5197 61.0585 57.555 60.9883 57.555L61.3396 59.5282C61.4098 59.493 61.4801 59.4577 61.5503 59.4577L61.199 57.5197ZM65.5549 57.0264L61.8313 59.5634L61.5854 59.7396L61.5503 59.493L61.199 57.555C61.1288 57.555 61.0585 57.5902 60.9883 57.5902L61.3396 59.5634L61.4098 59.8806V59.951C61.4098 59.951 61.4098 59.951 61.4098 59.9863C61.4098 59.9863 61.4098 59.9863 61.4098 60.0215L61.4449 60.0567H61.4801H61.5152L61.5854 60.0215L61.6206 59.9863L61.6908 59.9158L61.9016 59.7748L65.9061 57.0264C65.8359 56.9912 65.6954 56.9912 65.5549 57.0264Z" fill="white"/>
<path d="M80.2425 65.0949V65.0597C80.2425 65.0244 80.2074 65.0244 80.1722 65.0244L79.9264 64.954L62.0113 59.9504L61.8006 59.88L61.66 59.8447H61.6249C61.5898 59.8447 61.5547 59.8447 61.5547 59.8447L61.5195 59.88V59.9152C61.5195 59.9152 61.5195 59.9152 61.5195 59.9504C61.5195 59.9504 61.5195 59.9504 61.5195 59.9857L61.5547 60.0209L61.7654 60.2323L61.8006 60.2676L77.2215 74.8906L77.4323 75.0668L77.5728 75.2077L77.6431 75.2782L77.6782 75.3134C77.6782 75.3134 77.6782 75.3134 77.7133 75.3134H77.7484C77.7484 75.3134 77.7484 75.3134 77.7836 75.3134C77.7836 75.3134 77.7836 75.3134 77.8187 75.2782V75.2429V75.2077L77.9943 74.5382L80.2074 65.5178L80.3127 65.1302L80.2425 65.0949ZM77.2567 74.7144L61.9411 60.1618L80.0317 65.2006L77.7484 74.503L77.6079 75.0315L77.2567 74.7144Z" fill="white"/>
<path d="M61.4469 59.9861C61.4469 59.9508 61.4117 59.9508 61.4117 59.9508C61.4117 59.9508 61.4117 59.9508 61.4117 59.9156C61.4117 59.9156 61.4117 59.9156 61.4117 59.8804V59.8099L61.1658 59.9156L54.1403 62.9107C54.1755 62.9811 54.2106 63.0516 54.2106 63.1221L56.0724 62.3469L61.3063 60.127L61.5171 60.0565L61.5522 60.0213L61.4469 59.9861ZM60.9902 57.5548L61.3415 59.528L60.9902 57.5548ZM61.6225 59.8804V59.8099L61.5874 59.7042L61.5522 59.4575L61.201 57.5195C61.1307 57.5195 61.0605 57.5548 60.9902 57.5548L61.3415 59.528L61.4117 59.8451L61.1658 59.9508L54.1403 62.9459L54.1052 62.9811L54.1403 62.9459L56.4236 58.9642C56.3182 58.9995 56.2129 59.0347 56.1075 59.1052L53.9647 62.805L53.7891 63.1221V63.1573C53.7891 63.1573 53.7891 63.1573 53.7891 63.1926V63.2278C53.7891 63.263 53.7891 63.263 53.8242 63.2983C53.8593 63.3335 53.8593 63.3335 53.8944 63.3335H53.9296L53.9998 63.2983L54.0701 63.263L54.2457 63.1926L56.1075 62.4174L61.3415 60.1975L61.5522 60.127L61.5874 60.0918H61.6225H61.6576C61.6225 59.9861 61.6576 59.9508 61.6225 59.8804Z" fill="white"/>
<path d="M80.2386 65.0954V65.0602L76.7258 58.9644C76.6205 58.9291 76.5151 58.8939 76.4097 58.8587L79.9224 64.9545L62.0074 59.951L61.7966 59.8805L62.0074 59.7396L66.0119 57.0264C65.8714 57.0264 65.7309 57.0264 65.6255 57.0264L61.902 59.5634L61.6561 59.7396L61.5507 59.81L61.5156 59.8453V59.8805C61.5156 59.8805 61.5156 59.8805 61.5156 59.9157C61.5156 59.9157 61.5156 59.9157 61.5156 59.951C61.5156 59.951 61.5156 59.951 61.5507 59.951H61.5859L61.7264 59.9862L61.9723 60.0567L80.063 65.0954H80.0981H80.1332C80.1332 65.0954 80.1332 65.0954 80.1683 65.0954C80.2035 65.0954 80.2386 65.0954 80.2386 65.0602C80.2386 65.0602 80.2386 65.0602 80.2386 65.025C80.2386 65.1307 80.2386 65.1307 80.2386 65.0954Z" fill="white"/>
<path d="M65.2055 74.1867C65.2055 74.1515 65.2055 74.1867 65.2055 74.1867L65.1704 74.081L64.9947 73.3763L61.7279 60.3037V60.2685L61.6928 60.0923L61.6576 59.9866L61.6225 59.9161V59.8809C61.6225 59.8809 61.6225 59.8809 61.5874 59.8809C61.5522 59.8809 61.5171 59.8809 61.5171 59.8809L61.4469 59.9161L61.201 60.0218L54.1755 63.0169L54.1403 63.0521L53.8593 63.1578C53.8593 63.1578 53.8593 63.1578 53.8242 63.1578C53.8242 63.1578 53.8242 63.1578 53.7891 63.1578C53.7891 63.1578 53.7891 63.1578 53.7891 63.1931C53.7891 63.1931 53.7891 63.1931 53.7891 63.2283V63.2635C53.7891 63.2988 53.7891 63.2988 53.8242 63.334L53.9998 63.5102L54.0701 63.5807L64.5732 73.8344L64.9596 74.222L64.9947 74.2572L65.065 74.2924L65.1001 74.3277C65.1001 74.3277 65.1353 74.3277 65.1353 74.3629H65.1704H65.2055H65.2406C65.2055 74.222 65.2055 74.222 65.2055 74.1867ZM64.6083 73.5877L54.1403 63.3692L53.9998 63.2635L54.1755 63.1931L56.0372 62.4179L61.2361 60.198L61.4469 60.1275L61.5171 60.3742L64.784 73.482L64.8894 73.9049L64.6083 73.5877Z" fill="white"/>
<path d="M91.6904 85.04L91.585 84.9695H91.5499L84.5947 79.7545L84.419 79.6488L84.3488 79.5783L84.3137 79.5431L84.2785 79.5079C84.2434 79.4726 84.2083 79.4726 84.1731 79.5079C84.1731 79.5079 84.138 79.5079 84.138 79.5431L84.1029 79.5783L84.0678 79.6136L83.9272 79.7898L76.6558 88.2464L76.4451 88.4931L76.41 88.5283L76.3046 88.634L76.2343 88.7045L76.1992 88.7398C76.1992 88.7398 76.1992 88.775 76.1641 88.775V88.8102V88.8455C76.1641 88.8807 76.1992 88.9159 76.2343 88.9159H76.2694H76.3046L76.972 88.775L91.2338 85.3571L91.6202 85.2514H91.6553C91.6904 85.2514 91.6904 85.2514 91.7256 85.2161V85.1809C91.7607 85.1104 91.7607 85.0752 91.6904 85.04ZM76.8315 88.3522L84.138 79.8602L84.2785 79.7193L84.4542 79.8602L91.4094 85.0752L76.9369 88.5283L76.5856 88.5988L76.8315 88.3522Z" fill="white"/>
<path d="M89.0552 68.7251L84.4535 78.8731L84.2779 79.2607L84.1725 78.8379L80.3436 65.2367L85.3668 64.391C85.2966 64.3206 85.2263 64.2501 85.1561 64.2148L80.2733 65.0253H80.2031C80.2031 65.0253 80.2031 65.0253 80.168 65.0253H80.1328L80.0977 65.0605C80.0977 65.0957 80.0626 65.0958 80.0977 65.131L80.168 65.4481L80.2031 65.5186L83.9617 78.8379L84.0671 79.2255L84.1374 79.4369V79.5073C84.1374 79.5073 84.1374 79.5073 84.1374 79.5426C84.1374 79.5426 84.1374 79.5426 84.1725 79.5426H84.2076C84.2427 79.5426 84.2428 79.5426 84.2779 79.5426C84.313 79.5426 84.313 79.5073 84.313 79.5073L84.3481 79.4369L84.4184 79.2607L84.594 78.8731L85.7884 76.2656L89.1957 68.7955C89.1606 68.8308 89.0904 68.7603 89.0552 68.7251Z" fill="white"/>
<path d="M93.8671 81.0932L91.6189 84.9692H91.5838L84.6285 79.7542L84.488 79.6485L84.769 79.5428L92.8484 76.3716C92.8484 76.3011 92.8132 76.2306 92.7781 76.1602L84.8042 79.2962L84.488 79.4019L84.3475 79.4371L84.2773 79.4724L84.207 79.5076C84.207 79.5076 84.1719 79.5076 84.1719 79.5428C84.1719 79.5428 84.1719 79.5428 84.1719 79.5781V79.6133C84.1719 79.6133 84.1719 79.6133 84.1719 79.6485C84.1719 79.6485 84.1719 79.6485 84.207 79.6485L84.2773 79.6838L84.4529 79.8247L91.4081 85.0397L91.4784 85.0749L91.5838 85.1454C91.5838 85.1454 91.5838 85.1454 91.6189 85.1454H91.654C91.6892 85.1454 91.6892 85.1454 91.7243 85.1102V85.0749L91.7946 84.934L93.8671 81.3399C93.8671 81.3046 93.8671 81.3046 93.8671 81.2694C93.8671 81.2694 93.8671 81.1637 93.8671 81.0932Z" fill="white"/>
<path d="M84.35 79.5074L84.3149 79.4369L84.2797 79.2607L84.1743 78.8379L80.3454 65.2367L80.3103 65.131C80.3103 65.0958 80.2752 65.0958 80.2752 65.0958C80.2401 65.0958 80.2401 65.0605 80.2049 65.0605C80.2049 65.0605 80.2049 65.0605 80.1698 65.0605H80.1347L80.0996 65.0958V65.131V65.1663L77.8163 74.4686L77.6757 75.0324V75.1029V75.1381L77.6406 75.279C77.6406 75.279 77.6406 75.279 77.6406 75.3143V75.3495C77.6406 75.3847 77.6757 75.3848 77.6757 75.42L77.7811 75.4905L77.8163 75.5257L77.8865 75.5609L83.7528 79.4017L84.1041 79.6483L84.1743 79.6836C84.1743 79.6836 84.1743 79.6836 84.2095 79.6836H84.2446H84.2797L84.3149 79.6483L84.35 79.6131V79.5779V79.5074ZM84.069 79.3312L83.7879 79.1198L78.0621 75.3848L77.8163 75.2438L77.9919 74.5743L80.1698 65.5891L83.9284 78.9084L84.069 79.3312Z" fill="white"/>
<path d="M92.743 76.1243L84.769 79.2603C84.769 79.3308 84.769 79.4013 84.769 79.4717V79.507L92.8484 76.3357C92.8132 76.2652 92.7781 76.1948 92.743 76.1243ZM84.769 79.2603L84.4529 79.366L84.6285 78.9784L85.8229 76.3709L89.1951 68.9009C89.16 68.8304 89.0897 68.7599 89.0546 68.6895L84.4529 78.8727L84.2773 79.2603L84.207 79.4012L84.1719 79.507V79.5422V79.5774C84.1719 79.5774 84.1719 79.5774 84.1719 79.6127C84.1719 79.6127 84.1719 79.6127 84.207 79.6127H84.2421H84.2773H84.3124L84.488 79.5422L84.769 79.4365L92.8484 76.2652C92.8484 76.1948 92.8132 76.1243 92.7781 76.0538L84.769 79.2603Z" fill="white"/>
<path d="M84.3137 79.5067L84.2786 79.4715L84.2083 79.4363L84.0678 79.3658L83.7868 79.1896L78.061 75.4546L77.8151 75.3136L77.78 75.2784C77.7449 75.2431 77.7097 75.2431 77.6746 75.2784C77.6395 75.2784 77.6044 75.3136 77.6044 75.3489V75.3841V75.4193V75.525V75.5955L76.3046 88.2453L76.2695 88.6681V88.7738V88.8091V88.8443V88.8795C76.2695 88.9148 76.3046 88.95 76.3398 88.95H76.3749C76.41 88.95 76.4451 88.95 76.4451 88.9148L76.5857 88.7386L76.6559 88.6329L76.9018 88.351L84.2083 79.8591L84.3488 79.7181L84.384 79.6477L84.4191 79.6124C84.4191 79.6124 84.4191 79.6124 84.4191 79.5772V79.542C84.3488 79.542 84.3137 79.5067 84.3137 79.5067ZM83.9273 79.7886L76.6559 88.2453L76.4451 88.4919L76.4803 88.1748L77.78 75.525V75.4898L77.8502 75.525L83.7165 79.3658L84.0678 79.6124L83.9273 79.7886Z" fill="white"/>
<path d="M91.7967 85.0041L93.9043 81.3748C93.9043 81.2691 93.8692 81.1634 93.8692 81.0929C93.8692 81.0577 93.8692 81.0577 93.8692 81.0225L91.5859 84.9689L91.5508 85.0394V85.0746C91.5508 85.0746 91.5508 85.0746 91.5508 85.1099V85.1451C91.5508 85.1803 91.5859 85.1803 91.621 85.1803L91.7264 85.2156H91.7615L91.8318 85.2508H91.9021L94.08 85.885C94.08 85.8146 94.08 85.7441 94.08 85.6736L91.8669 85.0394L91.7967 85.0041Z" fill="white"/>
<path d="M91.7967 85.004L91.6562 84.9688H91.621C91.5859 84.9688 91.5859 85.004 91.5508 85.004V85.0392C91.5508 85.0392 91.5508 85.0392 91.5508 85.0745C91.5508 85.1097 91.5508 85.1097 91.5508 85.1097L91.621 85.2154V85.2506L93.7287 88.9152C93.7287 88.8447 93.7638 88.739 93.7638 88.6333C93.7638 88.5981 93.7638 88.5981 93.7638 88.5628L91.8318 85.2154L94.0097 85.8497C94.0097 85.7792 94.0097 85.7087 94.0097 85.6382L91.7967 85.004Z" fill="white"/>
<path d="M55.6834 82.185L55.6132 82.1145L55.4375 81.9031L52.5571 78.8375L52.4517 78.7318L52.3814 78.6614L52.3463 78.6261C52.3463 78.6261 52.3112 78.6261 52.3112 78.5909H52.2761H52.2409C52.2409 78.5909 52.2409 78.5909 52.2058 78.5909L52.1707 78.6261L52.0653 78.6614L51.995 78.7318L51.9248 78.7671L41.5973 84.7572L41.2811 84.9334L41.2109 84.9686C41.1758 84.9686 41.1758 85.0039 41.1758 85.0391C41.1758 85.0391 41.1758 85.0744 41.1758 85.1096V85.1448C41.2109 85.1801 41.246 85.2153 41.2811 85.2153C41.2811 85.2153 41.2811 85.2153 41.3163 85.2153L41.4216 85.1801L41.6324 85.1448L55.1916 82.5021H55.297L55.6132 82.4316H55.6834H55.7185C55.7185 82.4316 55.7537 82.4316 55.7537 82.3964L55.7888 82.3612C55.7185 82.2555 55.7185 82.2202 55.6834 82.185ZM52.0653 78.908L52.2058 78.8375L52.3112 78.9433L55.2268 82.0793L55.3673 82.2202L55.1565 82.2555L41.808 84.8629L52.0653 78.908Z" fill="white"/>
<path d="M52.1328 78.7318C52.1328 78.6965 52.1328 78.6965 52.1328 78.6613V78.6261V78.5908V78.5204V78.4499L51.8869 78.2385L42.7187 70.6979C42.6835 70.7684 42.6484 70.8389 42.6133 70.8741L51.7816 78.4146L51.8167 78.4499L52.0626 78.6261L52.1328 78.7318C52.168 78.767 52.168 78.7318 52.1328 78.7318ZM53.9243 63.1221C53.8892 63.0869 53.8541 63.0869 53.7838 63.0869H53.7487L53.3272 63.1221L48.6201 63.6155C48.5147 63.6859 48.4445 63.7916 48.3391 63.8621L53.3623 63.3336L53.6785 63.2983L53.6433 63.545L52.168 78.0623L52.1328 78.4499L51.8869 78.2385L42.7187 70.6979C42.6835 70.7684 42.6484 70.8389 42.6133 70.8741L51.7816 78.4146L51.8167 78.4499L52.0626 78.6261L52.168 78.7318C52.168 78.7318 52.168 78.7318 52.2031 78.7318H52.2382C52.2382 78.7318 52.2382 78.7318 52.2733 78.7318L52.3085 78.6965C52.3085 78.6965 52.3085 78.6965 52.3085 78.6613C52.3085 78.6613 52.3085 78.6613 52.3085 78.6261V78.5908V78.4851L52.3436 78.0975L53.819 63.5097V63.3688V63.1926V63.1221C53.9243 63.1574 53.9243 63.1574 53.9243 63.1221Z" fill="white"/>
<path d="M65.2042 74.1867C65.2042 74.1515 65.2042 74.1867 65.2042 74.1867C65.2042 74.1515 65.2042 74.1514 65.2042 74.1514C65.2042 74.1514 65.2042 74.1162 65.169 74.1162H65.1339H65.0988L64.9934 74.1514L64.9231 74.1867L64.5719 74.2924L52.6988 78.4503L52.4177 78.556L52.3124 78.5912H52.2772H52.2421C52.207 78.5912 52.1718 78.6264 52.1718 78.6617V78.6969C52.1718 78.7321 52.1718 78.7322 52.1718 78.7674C52.1718 78.7674 52.1718 78.7674 52.1718 78.8026L52.207 78.8379L52.3124 78.9436L55.2279 82.0796L55.3685 82.2205L55.4036 82.2558L55.4387 82.291L55.4738 82.3262L55.509 82.3615L55.5441 82.3967H55.5792H55.6143C55.6143 82.3967 55.6495 82.3967 55.6495 82.3615L55.79 82.2205L55.9305 82.1148L64.7826 74.5743L64.9583 74.4333L65.0636 74.3276H65.0988C65.0988 74.3276 65.0988 74.3276 65.0988 74.2924C65.2042 74.2219 65.2042 74.2219 65.2042 74.1867ZM55.8251 81.9386L55.6143 82.1148L55.4387 81.9034L52.5231 78.8379L52.4177 78.7322L52.6285 78.6617L64.5719 74.5038L55.8251 81.9386Z" fill="white"/>
<path d="M52.174 78.7672L52.0335 78.6615L51.7876 78.4853L51.7524 78.45L40.5116 75.4902C40.4765 75.5607 40.4765 75.6311 40.4414 75.7016L51.8227 78.6967L51.9281 78.7319L52.174 78.7672C52.2091 78.8024 52.174 78.7672 52.174 78.7672ZM52.3496 78.6615C52.3496 78.6262 52.3145 78.6262 52.3145 78.6262L52.2794 78.591L52.174 78.5205L51.9281 78.3091L42.7598 70.7686C42.7247 70.839 42.6895 70.9095 42.6544 70.9447L51.8227 78.4853L40.5819 75.5254C40.5468 75.5959 40.5468 75.6664 40.5116 75.7369L51.8929 78.7319L51.9983 78.7672L52.2091 78.8376H52.2442C52.2442 78.8376 52.2442 78.8376 52.2794 78.8376L52.3145 78.8024C52.3145 78.8024 52.3145 78.8024 52.3145 78.7672C52.3496 78.6967 52.3496 78.6967 52.3496 78.6615Z" fill="white"/>
<path d="M64.6461 74.4329C64.611 74.3976 64.5759 74.3272 64.5407 74.2919L52.6676 78.4498C52.6676 78.485 52.6676 78.5555 52.6676 78.626C52.6676 78.6612 52.6676 78.6612 52.6325 78.6965L64.5759 74.5386L64.6461 74.4329C64.6812 74.4329 64.6812 74.4329 64.6461 74.4329ZM65.2082 74.1862C65.2082 74.151 65.2082 74.1862 65.2082 74.1862C65.2082 74.151 65.2082 74.151 65.2082 74.151C65.2082 74.151 65.2082 74.151 65.2082 74.1158L64.9623 73.8691L64.6812 73.5872L54.2132 63.3687L54.0727 63.263L53.9673 63.1573C53.9322 63.1221 53.8971 63.1221 53.862 63.1221C53.862 63.1221 53.862 63.1221 53.8268 63.1221C53.8268 63.1221 53.8268 63.1221 53.7917 63.1573C53.7917 63.1573 53.7917 63.1573 53.7917 63.1925C53.7917 63.1925 53.7917 63.1925 53.7917 63.2278V63.263V63.3687L53.7566 63.6154L52.2812 78.1327L52.2461 78.5203V78.5908V78.6612V78.6965V78.7317C52.2461 78.7669 52.2461 78.7669 52.2461 78.8022C52.2461 78.8022 52.2461 78.8022 52.2461 78.8374C52.2461 78.8374 52.2461 78.8374 52.2812 78.8374H52.3164C52.3164 78.8374 52.3163 78.8374 52.3515 78.8374L52.492 78.8022L52.7028 78.7317L64.6461 74.5738L64.7515 74.5386L65.0676 74.4329L65.173 74.3976H65.2082C65.2082 74.3976 65.2081 74.3976 65.2433 74.3976C65.2433 74.3976 65.2433 74.3977 65.2433 74.3624C65.2081 74.2215 65.2082 74.2215 65.2082 74.1862ZM52.6676 78.4146L52.3866 78.5203L52.4217 78.1327L53.8971 63.5449V63.404L53.9673 63.4744L64.4705 73.7282L64.8569 74.1158L64.5056 74.2215L52.6676 78.4146Z" fill="white"/>
<path d="M51.892 78.7671L41.5645 84.7573C41.5996 84.8277 41.5996 84.8982 41.5996 84.9687V85.0039L41.6699 84.9687L41.8104 84.8982L52.0676 78.9785C51.9974 78.8728 51.9622 78.8376 51.892 78.7671ZM52.3486 78.6614C52.3486 78.6262 52.3486 78.6262 52.3486 78.6262C52.3486 78.6262 52.3135 78.6262 52.3135 78.5909H52.2784L52.2081 78.5557L51.892 78.4852H51.8568L40.616 75.5254C40.5809 75.5959 40.5809 75.6663 40.5458 75.7368L51.9271 78.7319L52.0325 78.7671L51.9622 78.8024L41.6347 84.7925L41.3186 84.9687L41.0727 84.5811L39.2461 81.4098V81.4451C39.2461 81.5508 39.2109 81.6565 39.2109 81.7622L40.8971 84.722L41.0376 84.9687L41.143 85.1449L41.1781 85.1801V85.2153C41.1781 85.2506 41.2132 85.2506 41.2483 85.2506H41.2835C41.2835 85.2506 41.2835 85.2506 41.3186 85.2506H41.3537L41.3888 85.2153L41.6347 85.0744L41.705 85.0392L41.8455 84.9687L52.1027 79.049L52.2432 78.9785L52.2784 78.9433L52.3135 78.9081C52.3135 78.9081 52.3135 78.9081 52.3135 78.8728C52.3486 78.6966 52.3486 78.6966 52.3486 78.6614C52.3486 78.6966 52.3486 78.6966 52.3486 78.6614Z" fill="white"/>
<path d="M45.4287 88.7034C45.3584 89.1262 44.9369 89.3729 44.5505 89.3024C44.129 89.2319 43.8831 88.8091 43.9533 88.4215C44.0236 87.9987 44.4451 87.752 44.8315 87.8225C45.2179 87.893 45.4989 88.3158 45.4287 88.7034Z" fill="white"/>
<path d="M41.5984 85.0045C41.5633 85.2512 41.3174 85.3921 41.1066 85.3569C40.8607 85.3216 40.7202 85.075 40.7553 84.8636C40.7905 84.6169 41.0364 84.476 41.2471 84.5112C41.493 84.5465 41.6335 84.7931 41.5984 85.0045Z" fill="white"/>
<path d="M52.6648 78.5914C52.6297 78.8381 52.3838 78.979 52.173 78.9438C51.9271 78.9086 51.7866 78.6619 51.8217 78.4505C51.8569 78.2038 52.1028 78.0629 52.3135 78.0981C52.5594 78.1334 52.6999 78.38 52.6648 78.5914Z" fill="white"/>
<path d="M56.0359 82.3961C56.0008 82.6428 55.7549 82.7837 55.5441 82.7485C55.2982 82.7132 55.1577 82.4666 55.1928 82.2552C55.228 82.0085 55.4739 81.8676 55.6846 81.9028C55.9305 81.9381 56.071 82.1495 56.0359 82.3961Z" fill="white"/>
<path d="M54.1765 63.2282C54.1414 63.4748 53.8955 63.6158 53.6847 63.5805C53.4388 63.5453 53.2983 63.2986 53.3335 63.0872C53.3686 62.8406 53.6145 62.6996 53.8252 62.7349C54.0711 62.7701 54.2117 63.0167 54.1765 63.2282Z" fill="white"/>
<path d="M62.0086 59.986C61.9734 60.2326 61.7275 60.3736 61.5168 60.3383C61.2709 60.3031 61.1304 60.0564 61.1655 59.845C61.2006 59.5984 61.4465 59.4574 61.6573 59.4927C61.9032 59.5279 62.0437 59.7393 62.0086 59.986Z" fill="white"/>
<path d="M65.696 74.1158C65.6258 74.4681 65.3096 74.6795 64.9584 74.6091C64.6071 74.5386 64.3963 74.2215 64.4666 73.8691C64.5368 73.5167 64.853 73.3053 65.2043 73.3758C65.5555 73.4463 65.7663 73.7634 65.696 74.1158Z" fill="white"/>
<path d="M78.2028 75.1024C78.1326 75.3843 77.8867 75.5605 77.5705 75.5253C77.2895 75.4548 77.1139 75.2081 77.149 74.891C77.1841 74.5739 77.4651 74.4329 77.7813 74.4682C78.0974 74.5386 78.2731 74.8205 78.2028 75.1024Z" fill="white"/>
<path d="M84.7692 79.4717C84.699 79.7536 84.4531 79.9298 84.1369 79.8946C83.8559 79.8241 83.6803 79.5774 83.7154 79.2603C83.7856 78.9784 84.0315 78.8022 84.3477 78.8375C84.6287 78.9079 84.8043 79.1898 84.7692 79.4717Z" fill="white"/>
<path d="M87.3708 89.9014C87.3005 90.1833 87.0546 90.3595 86.7385 90.3242C86.4575 90.2538 86.2818 90.0071 86.317 89.69C86.3872 89.4081 86.6331 89.2319 86.9493 89.2672C87.2654 89.3376 87.441 89.6195 87.3708 89.9014Z" fill="white"/>
<path d="M60.7431 96.1381C60.6728 96.4553 60.3918 96.6667 60.0757 96.5962C59.7595 96.5257 59.5488 96.2438 59.619 95.9267C59.6893 95.6096 59.9703 95.3982 60.2864 95.4687C60.5675 95.5039 60.7782 95.821 60.7431 96.1381Z" fill="white"/>
<path d="M54.2118 107.027C54.1416 107.344 53.8606 107.555 53.5444 107.485C53.2283 107.414 53.0175 107.133 53.0878 106.815C53.158 106.498 53.439 106.287 53.7552 106.357C54.0713 106.393 54.2821 106.71 54.2118 107.027Z" fill="white"/>
<path d="M67.0321 85.2153C66.9618 85.5324 66.6808 85.7438 66.3647 85.6734C66.0485 85.6029 65.8378 85.321 65.908 85.0039C65.9783 84.6867 66.2593 84.4753 66.5754 84.5458C66.8916 84.6163 67.1023 84.8982 67.0321 85.2153Z" fill="white"/>
<path d="M76.9737 88.8803C76.9034 89.1975 76.6224 89.4089 76.3063 89.3384C75.9901 89.2679 75.7793 88.986 75.8496 88.6689C75.9199 88.3518 76.2009 88.1404 76.517 88.2108C76.8332 88.2813 77.0439 88.5632 76.9737 88.8803Z" fill="white"/>
<path d="M73.286 96.1743C73.2158 96.4914 72.9348 96.7028 72.6186 96.6323C72.3025 96.5619 72.0917 96.28 72.162 95.9629C72.2322 95.6457 72.5132 95.4343 72.8294 95.5048C73.1455 95.5753 73.3563 95.8572 73.286 96.1743Z" fill="white"/>
<path d="M67.665 98.7466C67.5947 99.0637 67.3137 99.2751 66.9975 99.2046C66.6814 99.1341 66.4706 98.8522 66.5409 98.5351C66.6111 98.218 66.8922 98.0066 67.2083 98.0771C67.5245 98.1475 67.7001 98.4294 67.665 98.7466Z" fill="white"/>
<path d="M70.2275 107.908C70.1572 108.225 69.8762 108.436 69.56 108.366C69.2439 108.295 69.0331 108.013 69.1034 107.696C69.1736 107.379 69.4547 107.168 69.7708 107.238C70.0869 107.309 70.2626 107.591 70.2275 107.908Z" fill="white"/>
<path d="M47.3945 94.976C47.3945 94.6588 47.6756 94.377 47.9917 94.377C48.3078 94.377 48.5889 94.6588 48.5889 94.976C48.5889 95.2931 48.3078 95.575 47.9917 95.575C47.6756 95.575 47.3945 95.3283 47.3945 94.976Z" fill="white"/>
<path d="M62.4297 104.067C62.4297 103.75 62.7107 103.468 63.0269 103.468C63.343 103.468 63.624 103.75 63.624 104.067C63.624 104.384 63.343 104.666 63.0269 104.666C62.6756 104.666 62.4297 104.384 62.4297 104.067Z" fill="white"/>
<path d="M46.4102 83.4542C46.4102 82.4676 47.2181 81.6924 48.1665 81.6924C49.1501 81.6924 49.9229 82.5028 49.9229 83.4542C49.9229 84.4408 49.115 85.216 48.1665 85.216C47.183 85.216 46.4102 84.4408 46.4102 83.4542Z" fill="white"/>
<path d="M52.2773 101.459C52.2773 100.86 52.7691 100.402 53.3312 100.402C53.9283 100.402 54.385 100.896 54.385 101.459C54.385 102.058 53.8932 102.517 53.3312 102.517C52.734 102.517 52.2773 102.058 52.2773 101.459Z" fill="white"/>
<path d="M51.7148 89.5846C51.7148 89.197 52.031 88.8799 52.4174 88.8799C52.8038 88.8799 53.1199 89.197 53.1199 89.5846C53.1199 89.9722 52.8038 90.2893 52.4174 90.2893C52.031 90.2893 51.7148 89.9722 51.7148 89.5846Z" fill="white"/>
<path d="M78.6211 97.5836C78.6211 97.196 78.9372 96.8789 79.3236 96.8789C79.71 96.8789 80.0262 97.196 80.0262 97.5836C80.0262 97.9712 79.71 98.2883 79.3236 98.2883C78.9372 98.2883 78.6211 97.9712 78.6211 97.5836Z" fill="white"/>
<path d="M80.8008 91.171C80.8008 90.8891 81.0115 90.6777 81.2926 90.6777C81.5736 90.6777 81.7843 90.8891 81.7843 91.171C81.7843 91.4529 81.5736 91.6643 81.2926 91.6643C81.0115 91.6643 80.8008 91.4529 80.8008 91.171Z" fill="white"/>
<path d="M85.0157 80.3529C85.0157 79.5425 85.6479 78.9082 86.4559 78.9082C87.2638 78.9082 87.8961 79.5425 87.8961 80.3529C87.8961 81.1633 87.2638 81.7976 86.4559 81.7976C85.6479 81.7976 85.0157 81.1281 85.0157 80.3529Z" fill="white"/>
<path d="M79.5 85.04C79.5 84.5819 79.8864 84.1943 80.3431 84.1943C80.7997 84.1943 81.1861 84.5819 81.1861 85.04C81.1861 85.4981 80.7997 85.8857 80.3431 85.8857C79.8864 85.9209 79.5 85.5333 79.5 85.04Z" fill="white"/>
<path d="M72.7188 64.2503C72.7188 63.9332 72.9646 63.6865 73.2808 63.6865C73.5969 63.6865 73.8428 63.9332 73.8428 64.2503C73.8428 64.5674 73.5969 64.8141 73.2808 64.8141C72.9646 64.8141 72.7188 64.5674 72.7188 64.2503Z" fill="white"/>
<path d="M87.1588 92.4043C87.1588 91.9462 86.7724 91.5586 86.3157 91.5586C85.8591 91.5586 85.4727 91.9462 85.4727 92.4043C85.4727 92.8623 85.8591 93.2499 86.3157 93.2499C86.8075 93.2147 87.1588 92.8623 87.1588 92.4043Z" fill="white"/>
<path d="M59.5155 71.9314C59.5155 70.5572 58.4266 69.4648 57.0566 69.4648C55.6866 69.4648 54.5977 70.5572 54.5977 71.9314C54.5977 73.3056 55.6866 74.3979 57.0566 74.3979C58.3914 74.4331 59.5155 73.3056 59.5155 71.9314Z" fill="white"/>
<path d="M79.3614 68.5491C79.5019 69.3595 80.2748 69.8881 81.0827 69.7471C81.8906 69.6062 82.4175 68.831 82.277 68.0206C82.1365 67.2101 81.3637 66.6816 80.5558 66.8225C79.783 66.9635 79.2209 67.7387 79.3614 68.5491Z" fill="white"/>
<path d="M78.3416 76.3014C78.4469 76.8652 78.9739 77.2528 79.5359 77.147C80.0979 77.0413 80.4843 76.5128 80.379 75.949C80.2736 75.3852 79.7467 74.9976 79.1846 75.1033C78.6226 75.1738 78.2362 75.7376 78.3416 76.3014Z" fill="white"/>
<path d="M74.1976 103.468C74.1976 102.904 73.741 102.481 73.214 102.481C72.652 102.481 72.2305 102.94 72.2305 103.468C72.2305 104.032 72.6871 104.455 73.214 104.455C73.741 104.455 74.1976 104.032 74.1976 103.468Z" fill="white"/>
<path d="M77.2861 99.8033C77.2861 100.191 76.9699 100.508 76.5835 100.508H58.809C58.4226 100.508 58.1065 100.191 58.1065 99.8033C58.1065 98.429 59.2305 97.3015 60.5654 97.3015H65.5184C65.132 96.9844 64.8158 96.5615 64.6051 96.0682C64.5348 95.9273 64.4645 95.7511 64.4294 95.6101H64.4997C64.4645 95.6101 64.4294 95.5749 64.3943 95.5749V95.6101L63.5512 95.6806L58.8793 96.033C58.8793 96.033 58.8441 96.033 58.809 96.033C58.4226 96.033 58.0713 95.7159 58.0362 95.3283V95.1873C58.0011 94.7645 58.3172 94.4121 58.7388 94.3769L61.2328 94.2007L61.83 94.1655L64.324 93.9893H64.3943H64.324L60.6356 93.0731L59.9682 92.897L55.788 91.8399C55.1909 91.6989 54.8045 91.0647 54.9801 90.4657L55.0504 90.1838C55.1206 89.9019 55.2963 89.6552 55.5773 89.4791C55.8583 89.3029 56.1393 89.2676 56.4203 89.3381L58.3524 89.8314L58.8441 89.9371L64.1484 91.2761L65.5184 91.6285L65.9399 91.7342C66.3263 91.4875 66.7478 91.3466 67.2396 91.2761C68.0827 91.1352 68.8555 91.3466 69.5229 91.7342C71.9467 90.818 73.3518 88.2106 72.7546 85.6383C72.4385 84.3698 71.7008 83.2775 70.7172 82.5728C70.4713 82.6432 70.2255 82.6785 69.9796 82.6785C69.6985 82.6785 69.4175 82.6432 69.1365 82.5728L67.4153 82.0442L66.8181 84.0527C66.7478 84.3346 66.5722 84.546 66.2912 84.6869C66.1155 84.7574 65.975 84.8279 65.7994 84.8279C65.694 84.8279 65.5886 84.8279 65.4832 84.7926L65.3076 84.7222L64.8158 86.3078C64.7104 86.6954 64.3592 86.9068 64.0079 86.9068C63.9376 86.9068 63.8322 86.9068 63.762 86.8716L62.4623 86.484L62.0407 86.343L61.3031 86.1316C60.8464 85.9907 60.6005 85.5326 60.741 85.0745L61.2328 83.4889L60.8113 83.348C60.2492 83.1718 59.9331 82.5728 60.1087 82.009L60.4249 81.0224L60.7059 80.0357L63.0946 72.0724C63.1648 71.861 63.3053 71.6848 63.5161 71.5791C63.7269 71.4734 63.9376 71.4381 64.1835 71.5086L64.9212 71.7552L66.1858 67.5621L65.8696 67.4564C65.694 67.4212 65.6238 67.245 65.6589 67.0688C65.694 66.9279 65.8345 66.8574 65.9399 66.8574C65.975 66.8574 66.0102 66.8574 66.0102 66.8574L70.1903 68.1259C70.366 68.1612 70.4362 68.3373 70.4011 68.5135C70.366 68.6545 70.2255 68.7249 70.1201 68.7249C70.0849 68.7249 70.0498 68.7249 70.0498 68.7249L69.7337 68.6192L68.4691 72.8123L69.3121 73.059C69.5229 73.1295 69.6985 73.2704 69.8391 73.4818C69.9444 73.6932 69.9796 73.9047 69.9093 74.1513L69.2419 76.4064L70.8929 76.8997C71.7008 77.1464 72.3331 77.7102 72.6844 78.4149C74.9325 79.7186 76.6538 81.9033 77.2861 84.6517C78.4453 89.5495 75.6702 94.4826 71.0334 96.1034C70.8226 96.5968 70.5065 97.0548 70.085 97.372H74.8623C76.162 97.3015 77.2861 98.429 77.2861 99.8033Z" fill="#2D3037"/>
<path d="M47.0939 129.239H46.1455V122.95L43.5812 129.239H43.1948L40.6164 122.953V129.239H39.668V121.597H41.0274L43.3915 127.344L45.7661 121.597H47.0939V129.239Z" fill="#2D3037"/>
<path d="M59.3553 129.241H54.3672V121.599H59.3553V122.444H55.3156V124.911H59.2745V125.757H55.3156V128.389H59.3553V129.241Z" fill="#2D3037"/>
<path d="M65.8125 130.65V128.476C66.0949 128.469 66.3703 128.386 66.6099 128.236C66.8698 128.004 67.0576 127.702 67.1509 127.366C67.354 126.741 67.4894 126.096 67.5549 125.442L68.0221 121.608H72.68V128.398H73.3825V130.65H72.4341V129.241H66.7645V130.65H65.8125ZM68.4963 125.509C68.3206 126.982 67.9331 127.944 67.3336 128.395H71.7385V122.447H68.8721L68.4963 125.509Z" fill="#2D3037"/>
<path d="M80.9797 129.241H80.0664V121.599H81.0149V127.564L85.3812 121.599H86.3507V129.241H85.4023V123.146L80.9797 129.241Z" fill="#2D3037"/>
<path d="M94.3457 121.599V123.604C94.3457 124.778 94.9312 125.365 96.1021 125.365C96.6978 125.37 97.2905 125.281 97.8585 125.101V121.609H98.8069V129.241H97.8585V125.943C97.2606 126.113 96.6427 126.202 96.0213 126.208C95.6626 126.233 95.3025 126.184 94.9639 126.063C94.6252 125.941 94.3154 125.751 94.0542 125.503C93.5885 124.977 93.3486 124.288 93.3868 123.586V121.606L94.3457 121.599Z" fill="#2D3037"/>
<path d="M112.429 129.241H111.481V125.718H107.027V129.241H106.078V121.599H107.027V124.886H111.477V121.599H112.429V129.241Z" fill="#2D3037"/>
<path d="M126.205 129.241H125.119L124.445 127.546H120.655L119.984 129.241H118.898L121.958 121.605H123.135L126.205 129.241ZM124.16 126.701L122.552 122.589L120.932 126.701H124.16Z" fill="#2D3037"/>
<path d="M140.57 129.371V128.536C140.854 128.549 141.134 128.468 141.368 128.307C141.632 128.062 141.822 127.747 141.916 127.398C142.114 126.763 142.248 126.109 142.316 125.446L142.783 121.612H147.441V129.241H146.503V122.447H143.637L143.261 125.502C143.189 126.185 143.058 126.859 142.868 127.518C142.753 127.951 142.547 128.355 142.263 128.702C142.063 128.937 141.809 129.12 141.522 129.234C141.215 129.334 140.893 129.381 140.57 129.371Z" fill="#2D3037"/>
<path d="M161.221 129.241H160.135L159.461 127.546H155.674L155 129.241H153.914L156.974 121.605H158.15L161.221 129.241ZM159.176 126.701L157.567 122.589L155.948 126.701H159.176Z" fill="#2D3037"/>
<path d="M167.691 121.599H172.633V122.444H168.636V124.632H170.743C171.066 124.614 171.389 124.663 171.691 124.777C171.994 124.892 172.269 125.068 172.5 125.295C172.912 125.74 173.141 126.324 173.141 126.932C173.141 127.539 172.912 128.124 172.5 128.568C172.269 128.796 171.994 128.972 171.691 129.086C171.389 129.2 171.066 129.249 170.743 129.231H167.684L167.691 121.599ZM170.634 125.475H168.636V128.382H170.634C170.835 128.39 171.035 128.359 171.223 128.289C171.411 128.219 171.583 128.113 171.73 127.976C172.001 127.695 172.153 127.319 172.153 126.928C172.153 126.537 172.001 126.161 171.73 125.88C171.583 125.744 171.41 125.639 171.222 125.571C171.034 125.503 170.834 125.472 170.634 125.482V125.475Z" fill="#2D3037"/>
<path d="M183.338 129.372C182.829 129.391 182.323 129.301 181.852 129.108C181.381 128.914 180.957 128.622 180.608 128.251C179.931 127.466 179.559 126.462 179.559 125.424C179.559 124.385 179.931 123.381 180.608 122.596C181.332 121.874 182.312 121.469 183.332 121.469C184.353 121.469 185.333 121.874 186.057 122.596C186.737 123.38 187.112 124.384 187.112 125.424C187.112 126.463 186.737 127.467 186.057 128.251C185.708 128.621 185.286 128.912 184.817 129.105C184.348 129.298 183.844 129.389 183.338 129.372ZM183.338 128.526C183.719 128.54 184.099 128.468 184.45 128.317C184.8 128.165 185.113 127.937 185.365 127.649C185.864 127.013 186.135 126.227 186.135 125.418C186.135 124.609 185.864 123.823 185.365 123.188C185.102 122.913 184.787 122.695 184.439 122.546C184.09 122.397 183.715 122.32 183.336 122.32C182.957 122.32 182.582 122.397 182.233 122.546C181.885 122.695 181.57 122.913 181.307 123.188C180.812 123.825 180.542 124.61 180.542 125.418C180.542 126.226 180.812 127.012 181.307 127.649C181.558 127.939 181.871 128.17 182.222 128.324C182.573 128.477 182.955 128.55 183.338 128.537V128.526Z" fill="#2D3037"/>
<path d="M195.027 129.241H194.078V121.599H197.138C197.46 121.58 197.783 121.629 198.086 121.743C198.388 121.857 198.664 122.034 198.894 122.261C199.306 122.706 199.536 123.29 199.536 123.898C199.536 124.505 199.306 125.09 198.894 125.534C198.664 125.762 198.388 125.938 198.086 126.052C197.783 126.166 197.46 126.215 197.138 126.197H195.03L195.027 129.241ZM197.025 125.365C197.226 125.374 197.426 125.342 197.614 125.273C197.802 125.203 197.974 125.097 198.121 124.96C198.392 124.679 198.544 124.303 198.544 123.912C198.544 123.521 198.392 123.145 198.121 122.864C197.974 122.727 197.802 122.62 197.614 122.551C197.426 122.481 197.226 122.45 197.025 122.458H195.027V125.365H197.025Z" fill="#2D3037"/>
<path d="M212.776 129.241H211.69L211.016 127.546H207.229L206.558 129.241H205.473L208.532 121.605H209.709L212.776 129.241ZM210.731 126.701L209.122 122.589L207.503 126.701H210.731Z" fill="#2D3037"/>
<path d="M222.077 129.241H221.128V122.447H218.719V121.602H224.487V122.447H222.066L222.077 129.241Z" fill="#2D3037"/>
<path d="M234.701 129.372C234.193 129.391 233.686 129.301 233.215 129.108C232.745 128.914 232.321 128.622 231.972 128.251C231.294 127.466 230.922 126.462 230.922 125.424C230.922 124.385 231.294 123.381 231.972 122.596C232.696 121.874 233.675 121.469 234.696 121.469C235.717 121.469 236.696 121.874 237.42 122.596C238.1 123.38 238.475 124.384 238.475 125.424C238.475 126.463 238.1 127.467 237.42 128.251C237.072 128.621 236.649 128.912 236.18 129.105C235.712 129.298 235.207 129.389 234.701 129.372ZM234.701 128.526C235.083 128.54 235.462 128.468 235.813 128.317C236.164 128.165 236.476 127.937 236.728 127.649C237.227 127.013 237.498 126.227 237.498 125.418C237.498 124.609 237.227 123.823 236.728 123.188C236.466 122.913 236.151 122.695 235.802 122.546C235.453 122.397 235.078 122.32 234.699 122.32C234.32 122.32 233.945 122.397 233.596 122.546C233.248 122.695 232.933 122.913 232.671 123.188C232.175 123.825 231.906 124.61 231.906 125.418C231.906 126.226 232.175 127.012 232.671 127.649C232.921 127.939 233.234 128.17 233.585 128.324C233.937 128.477 234.318 128.55 234.701 128.537V128.526Z" fill="#2D3037"/>
<path d="M246.386 129.241H245.437V121.599H248.497C248.819 121.58 249.142 121.629 249.445 121.743C249.747 121.857 250.023 122.034 250.253 122.261C250.666 122.706 250.895 123.29 250.895 123.898C250.895 124.505 250.666 125.09 250.253 125.534C250.023 125.762 249.747 125.938 249.445 126.052C249.142 126.166 248.819 126.215 248.497 126.197H246.389L246.386 129.241ZM248.374 125.365C248.574 125.374 248.774 125.342 248.962 125.273C249.15 125.203 249.323 125.097 249.47 124.96C249.741 124.679 249.892 124.303 249.892 123.912C249.892 123.521 249.741 123.145 249.47 122.864C249.323 122.727 249.15 122.62 248.962 122.551C248.774 122.481 248.574 122.45 248.374 122.458H246.375V125.365H248.374Z" fill="#2D3037"/>
<path d="M258.562 129.241H257.613V121.599H258.562V129.241Z" fill="#2D3037"/>
<path d="M266.579 129.241H265.473L267.528 126.126C266.995 126.09 266.495 125.858 266.123 125.474C265.925 125.266 265.773 125.02 265.673 124.75C265.574 124.48 265.531 124.193 265.546 123.906C265.533 123.596 265.586 123.287 265.701 122.999C265.816 122.711 265.991 122.451 266.214 122.236C266.685 121.806 267.306 121.579 267.942 121.606H271.002V129.241H270.053V126.207H268.525L266.579 129.241ZM268.048 125.365H270.057V122.444H268.048C267.847 122.436 267.647 122.467 267.459 122.537C267.271 122.606 267.098 122.713 266.952 122.849C266.675 123.131 266.52 123.511 266.52 123.906C266.52 124.302 266.675 124.682 266.952 124.964C267.099 125.1 267.271 125.206 267.459 125.275C267.647 125.344 267.847 125.375 268.048 125.365Z" fill="#2D3037"/>
<defs>
<filter id="filter0_d_25_1256" x="0" y="0" width="310" height="187" filterUnits="userSpaceOnUse" color-interpolation-filters="sRGB">
<feFlood flood-opacity="0" result="BackgroundImageFix"/>
<feColorMatrix in="SourceAlpha" type="matrix" values="0 0 0 0 0 0 0 0 0 0 0 0 0 0 0 0 0 0 127 0" result="hardAlpha"/>
<feOffset/>
<feGaussianBlur stdDeviation="10"/>
<feColorMatrix type="matrix" values="0 0 0 0 0.293125 0 0 0 0 0.332039 0 0 0 0 0.35 0 0 0 0.1 0"/>
<feBlend mode="normal" in2="BackgroundImageFix" result="effect1_dropShadow_25_1256"/>
<feBlend mode="normal" in="SourceGraphic" in2="effect1_dropShadow_25_1256" result="shape"/>
</filter>
</defs>
</svg>
